<?xml version="1.0" encoding="UTF-8"?>
<!DOCTYPE svg PUBLIC "-//W3C//DTD SVG 1.1//EN" "http://www.w3.org/Graphics/SVG/1.1/DTD/svg11.dtd">
<!-- Creator: CorelDRAW -->
<svg xmlns="http://www.w3.org/2000/svg" xml:space="preserve" width="9.6524mm" height="14.2164mm" version="1.1" style="shape-rendering:geometricPrecision; text-rendering:geometricPrecision; image-rendering:optimizeQuality; fill-rule:evenodd; clip-rule:evenodd"
viewBox="0 0 46.03 67.79"
 xmlns:xlink="http://www.w3.org/1999/xlink"
 xmlns:xodm="http://www.corel.com/coreldraw/odm/2003">
 <defs>
  <style type="text/css">
   <![CDATA[
    .fil0 {fill:#EEEEEF}
    .fil5 {fill:#219EBC}
    .fil3 {fill:#EEEEEF;fill-rule:nonzero}
    .fil2 {fill:#EEEEEF;fill-rule:nonzero}
    .fil4 {fill:#E62129;fill-rule:nonzero}
    .fil1 {fill:#023047;fill-rule:nonzero}
   ]]>
  </style>
 </defs>
 <g id="Layer_x0020_1">
  <metadata id="CorelCorpID_0Corel-Layer"/>
  <g id="_2922195104368">
   <path class="fil0" d="M22.75 18.64l0 -2.1 0 -0.53c0,-0.15 0.12,-0.26 0.26,-0.26 0.14,0 0.26,0.12 0.26,0.26l0 0.26 3.41 0c0.14,0 0.26,0.12 0.26,0.26l0 2.1c0,0.14 -0.12,0.26 -0.26,0.26l-3.41 0 0 1.18 7.22 5.16c0.08,0.05 0.12,0.13 0.12,0.22 0,0.01 0,0.02 -0,0.02l0 2.08c0,0.14 -0.12,0.26 -0.26,0.26l-1.31 0 0 1.57 5.51 0c0.14,0 0.26,0.12 0.26,0.26l0 2.1c0,0.15 -0.12,0.26 -0.26,0.26l-0.79 0 0 1.88 5.69 0 0 8.22c0,9.08 -7.36,16.45 -16.44,16.45 -9.08,0 -16.45,-7.36 -16.45,-16.45l0 -8.22 5.69 0 0 -1.88 -0.79 0c-0.15,0 -0.26,-0.12 -0.26,-0.26l0 -2.1c0,-0.14 0.12,-0.26 0.26,-0.26l5.51 0 0 -1.57 -1.31 0c-0.14,0 -0.26,-0.12 -0.26,-0.26l0 -2.09c0,-0 0,-0 0,-0.01 0,-0.08 0.04,-0.16 0.11,-0.21l7.24 -5.17 0 -1.44zm22.03 4.38c0,-12.02 -9.74,-21.76 -21.76,-21.76 -12.02,0 -21.76,9.74 -21.76,21.76l0 21.76c0,12.02 9.74,21.76 21.76,21.76 12.02,0 21.76,-9.74 21.76,-21.76l0 -21.76z"/>
   <path class="fil1" d="M40.29 33.9l0 8.22c0,4.77 -1.93,9.09 -5.06,12.22 -3.13,3.13 -7.45,5.06 -12.22,5.06 -4.77,0 -9.09,-1.93 -12.22,-5.06 -3.13,-3.13 -5.06,-7.45 -5.06,-12.22l0 -9.06 34.56 0 0 0.83zm-1.67 8.22l0 -7.39 -31.22 0 0 7.39c0,4.31 1.75,8.21 4.57,11.04 2.82,2.83 6.73,4.57 11.04,4.57 4.31,0 8.21,-1.75 11.04,-4.57 2.82,-2.82 4.57,-6.73 4.57,-11.04z"/>
   <g>
    <polygon class="fil2" points="17.24,27.89 17.24,40.49 20.91,40.49 20.91,35.24 25.11,35.24 25.11,40.49 28.79,40.49 28.79,27.89 "/>
    <path id="_1" class="fil1" d="M17.1 40.49l0 -12.6 0.29 0 0 12.6 -0.14 0.14 -0.14 -0.14zm0.14 0.14l-0.14 0 0 -0.14 0.14 0.14zm3.67 0l-3.67 0 0 -0.29 3.67 0 0.14 0.14 -0.14 0.14zm0.14 -0.14l0 0.14 -0.14 0 0.14 -0.14zm0 -5.25l0 5.25 -0.29 0 0 -5.25 0.14 -0.14 0.14 0.14zm-0.29 0l0 -0.14 0.14 0 -0.14 0.14zm4.34 0.14l-4.2 0 0 -0.29 4.2 0 0.14 0.14 -0.14 0.14zm0 -0.29l0.14 0 0 0.14 -0.14 -0.14zm-0.14 5.39l0 -5.25 0.29 0 0 5.25 -0.14 0.14 -0.14 -0.14zm0.14 0.14l-0.14 0 0 -0.14 0.14 0.14zm3.67 0l-3.67 0 0 -0.29 3.67 0 0.14 0.14 -0.14 0.14zm0.14 -0.14l0 0.14 -0.14 0 0.14 -0.14zm0 -12.6l0 12.6 -0.29 0 0 -12.6 0.14 -0.14 0.14 0.14zm-0.14 -0.14l0.14 0 0 0.14 -0.14 -0.14zm-11.55 0l11.55 0 0 0.29 -11.55 0 -0.14 -0.14 0.14 -0.14zm-0.14 0.14l0 -0.14 0.14 0 -0.14 0.14z"/>
   </g>
   <polygon class="fil3" points="24.06,32.09 26.16,32.09 26.16,29.99 24.06,29.99 "/>
   <path class="fil1" d="M24.21 31.95l1.81 0 0 -1.81 -1.81 0 0 1.81zm1.96 0.29l-2.24 0 0 -2.39 2.39 0 0 2.39 -0.14 0z"/>
   <polygon class="fil3" points="19.86,32.09 21.96,32.09 21.96,29.99 19.86,29.99 "/>
   <path class="fil1" d="M20.01 31.95l1.81 0 0 -1.81 -1.81 0 0 1.81zm1.96 0.29l-2.24 0 0 -2.39 2.39 0 0 2.39 -0.14 0z"/>
   <g>
    <polygon class="fil3" points="20.91,40.49 25.11,40.49 25.11,35.24 20.91,35.24 "/>
    <path id="_1_0" class="fil1" d="M25.11 40.63l-4.2 0 0 -0.29 4.2 0 0.14 0.14 -0.14 0.14zm0.14 -0.14l0 0.14 -0.14 0 0.14 -0.14zm0 -5.25l0 5.25 -0.29 0 0 -5.25 0.14 -0.14 0.14 0.14zm-0.14 -0.14l0.14 0 0 0.14 -0.14 -0.14zm-4.2 0l4.2 0 0 0.29 -4.2 0 -0.14 -0.14 0.14 -0.14zm-0.14 0.14l0 -0.14 0.14 0 -0.14 0.14zm0 5.25l0 -5.25 0.29 0 0 5.25 -0.14 0.14 -0.14 -0.14zm0.14 0.14l-0.14 0 0 -0.14 0.14 0.14z"/>
   </g>
   <g>
    <polygon class="fil3" points="28.79,40.49 33.51,40.49 33.51,37.86 28.79,37.86 "/>
    <path id="_1_1" class="fil1" d="M33.51 40.63l-4.72 0 0 -0.29 4.72 0 0.14 0.14 -0.14 0.14zm0.14 -0.14l0 0.14 -0.14 0 0.14 -0.14zm0 -2.62l0 2.62 -0.29 0 0 -2.62 0.14 -0.14 0.14 0.14zm-0.14 -0.14l0.14 0 0 0.14 -0.14 -0.14zm-4.72 0l4.72 0 0 0.29 -4.72 0 -0.14 -0.14 0.14 -0.14zm-0.14 0.14l0 -0.14 0.14 0 -0.14 0.14zm0 2.62l0 -2.62 0.29 0 0 2.62 -0.14 0.14 -0.14 -0.14zm0.14 0.14l-0.14 0 0 -0.14 0.14 0.14z"/>
   </g>
   <g>
    <polygon class="fil3" points="12.52,40.49 17.24,40.49 17.24,37.86 12.52,37.86 "/>
    <path id="_1_2" class="fil1" d="M17.24 40.63l-4.72 0 0 -0.29 4.72 0 0.14 0.14 -0.14 0.14zm0.14 -0.14l0 0.14 -0.14 0 0.14 -0.14zm0 -2.62l0 2.62 -0.29 0 0 -2.62 0.14 -0.14 0.14 0.14zm-0.14 -0.14l0.14 0 0 0.14 -0.14 -0.14zm-4.72 0l4.72 0 0 0.29 -4.72 0 -0.14 -0.14 0.14 -0.14zm-0.14 0.14l0 -0.14 0.14 0 -0.14 0.14zm0 2.62l0 -2.62 0.29 0 0 2.62 -0.14 0.14 -0.14 -0.14zm0.14 0.14l-0.14 0 0 -0.14 0.14 0.14z"/>
   </g>
   <polygon class="fil3" points="28.79,37.86 33.51,37.86 33.51,32.09 28.79,32.09 "/>
   <path class="fil1" d="M28.93 37.72l4.44 0 0 -5.49 -4.44 0 0 5.49zm4.58 0.29l-4.87 0 0 -6.06 5.01 0 0 6.06 -0.14 0z"/>
   <polygon class="fil3" points="12.52,37.86 17.24,37.86 17.24,32.09 12.52,32.09 "/>
   <path class="fil1" d="M12.66 37.72l4.44 0 0 -5.49 -4.44 0 0 5.49zm4.58 0.29l-4.87 0 0 -6.06 5.01 0 0 6.06 -0.14 0z"/>
   <polygon class="fil3" points="34.56,29.99 34.56,32.09 28.79,32.09 28.79,29.99 "/>
   <path class="fil1" d="M34.7 29.99l0 2.24 -6.06 0 0 -2.39 6.06 0 0 0.14zm-0.29 1.96l0 -1.81 -5.49 0 0 1.81 5.49 0z"/>
   <polygon class="fil3" points="17.24,29.99 17.24,32.09 11.47,32.09 11.47,29.99 "/>
   <path class="fil1" d="M17.38 29.99l0 2.24 -6.06 0 0 -2.39 6.06 0 0 0.14zm-0.29 1.96l0 -1.81 -5.49 0 0 1.81 5.49 0z"/>
   <polygon class="fil3" points="30.36,25.79 30.36,27.89 15.67,27.89 15.67,25.79 "/>
   <path class="fil1" d="M30.5 25.79l0 2.24 -14.98 0 0 -2.39 14.98 0 0 0.14zm-0.29 1.96l0 -1.81 -14.41 0 0 1.81 14.41 0z"/>
   <polygon class="fil3" points="30.36,25.79 15.67,25.79 23.01,20.54 "/>
   <path class="fil1" d="M30.36 25.93l-15.14 0 7.79 -5.57 7.79 5.57 -0.45 0zm-14.25 -0.29l13.8 0 -6.9 -4.93 -6.9 4.93z"/>
   <polygon class="fil4" points="23.01,18.97 26.69,18.97 26.69,16.87 23.01,16.87 "/>
   <path class="fil1" d="M23.16 18.83l3.39 0 0 -1.81 -3.39 0 0 1.81zm3.53 0.29l-3.82 0 0 -2.39 3.96 0 0 2.39 -0.14 0z"/>
   <path class="fil1" d="M28.79 30.25c-0.14,0 -0.26,-0.12 -0.26,-0.26l0 -2.1c0,-0.14 0.12,-0.26 0.26,-0.26 0.14,0 0.26,0.12 0.26,0.26l0 2.1c0,0.15 -0.12,0.26 -0.26,0.26z"/>
   <path class="fil1" d="M28.79 30.4c-0.11,0 -0.21,-0.05 -0.29,-0.12 -0.07,-0.07 -0.12,-0.18 -0.12,-0.29l0 -2.1c0,-0.11 0.05,-0.21 0.12,-0.29 0.07,-0.07 0.18,-0.12 0.29,-0.12 0.11,0 0.21,0.05 0.29,0.12 0.07,0.07 0.12,0.18 0.12,0.29l0 2.1c0,0.11 -0.05,0.21 -0.12,0.29 -0.07,0.07 -0.18,0.12 -0.29,0.12zm-0.08 -0.32c0.02,0.02 0.05,0.03 0.08,0.03 0.03,0 0.06,-0.01 0.08,-0.03 0.02,-0.02 0.03,-0.05 0.03,-0.08l0 -2.1c0,-0.03 -0.01,-0.06 -0.03,-0.08 -0.02,-0.02 -0.05,-0.03 -0.08,-0.03 -0.03,0 -0.06,0.01 -0.08,0.03 -0.02,0.02 -0.04,0.05 -0.04,0.08l0 2.1c0,0.03 0.01,0.06 0.03,0.08z"/>
   <path class="fil3" d="M23.01 18.97l3.67 0 0 -1.05c-0.65,0.12 -1.32,-0.21 -1.95,0 -0.57,0.15 -1.15,0 -1.73,0l0 1.05z"/>
   <path class="fil1" d="M17.24 30.25c-0.14,0 -0.26,-0.12 -0.26,-0.26l0 -2.1c0,-0.14 0.12,-0.26 0.26,-0.26 0.14,0 0.26,0.12 0.26,0.26l0 2.1c0,0.15 -0.12,0.26 -0.26,0.26z"/>
   <path class="fil1" d="M17.24 30.4c-0.11,0 -0.21,-0.05 -0.29,-0.12 -0.07,-0.07 -0.12,-0.18 -0.12,-0.29l0 -2.1c0,-0.11 0.05,-0.21 0.12,-0.29 0.07,-0.07 0.18,-0.12 0.29,-0.12 0.11,0 0.21,0.05 0.29,0.12 0.07,0.07 0.12,0.18 0.12,0.29l0 2.1c0,0.11 -0.05,0.21 -0.12,0.29 -0.07,0.07 -0.18,0.12 -0.29,0.12zm-0.08 -0.32c0.02,0.02 0.05,0.03 0.08,0.03 0.03,0 0.06,-0.01 0.08,-0.03 0.02,-0.02 0.03,-0.05 0.03,-0.08l0 -2.1c0,-0.03 -0.01,-0.06 -0.03,-0.08 -0.02,-0.02 -0.05,-0.03 -0.08,-0.03 -0.03,0 -0.06,0.01 -0.08,0.03 -0.02,0.02 -0.03,0.05 -0.03,0.08l0 2.1c0,0.03 0.01,0.06 0.03,0.08z"/>
   <g>
    <path class="fil1" d="M33.51 40.75c-0.14,0 -0.26,-0.12 -0.26,-0.26l0 -8.4c0,-0.14 0.12,-0.26 0.26,-0.26 0.14,0 0.26,0.12 0.26,0.26l0 8.4c0,0.15 -0.12,0.26 -0.26,0.26z"/>
    <path id="_1_3" class="fil1" d="M33.1 40.49l0.29 0 0 0 0 0.01 0 0.01 0 0.01 0 0 0 0 0 0 0 0.01 0 0 0 0 0 0.01 0 0 0 0 0 0.01 0 0 0 0 0 0.01 0 0 0.01 0 0 0 0 0 0.01 0 0 0 0 0 0.01 0 0 0 0.01 0 0.01 0 0 0 0 0 0.01 0 0.01 0 0.01 0 0 0.29 -0.02 -0 -0.02 -0 -0.02 -0 -0.02 -0 -0.02 -0 -0.02 -0.01 -0.02 -0.01 -0.02 -0.01 -0.02 -0.01 -0.02 -0.01 -0.02 -0.01 -0.01 -0.01 -0.02 -0.01 -0.02 -0.01 -0.01 -0.01 -0.01 -0.01 -0.01 -0.01 -0.01 -0.02 -0.01 -0.02 -0.01 -0.02 -0.01 -0.02 -0.01 -0.02 -0.01 -0.01 -0.01 -0.02 -0.01 -0.02 -0.01 -0.02 -0.01 -0.02 -0 -0.02 -0 -0.02 -0 -0.02 -0 -0.02 -0 -0.02 0 0zm0.29 -8.4l0 8.4 -0.29 0 0 -8.4 0 0 0.29 0zm0.12 -0.4l0 0.29 0 0 -0.01 0 -0.01 0 -0.01 0 -0 0 -0 0 -0.01 0 -0.01 0 -0 0 -0.01 0 -0 0 -0 0 -0.01 0 -0.01 0 -0 0 -0 0 -0.01 0 -0 0.01 -0 0 -0 0.01 -0 0.01 -0 0 -0 0 -0 0.01 -0 0 -0 0 -0 0.01 -0 0.01 -0 0 -0 0 -0 0.01 -0 0.01 -0 0.01 -0.29 0 0 -0.02 0 -0.02 0 -0.02 0 -0.02 0 -0.02 0.01 -0.02 0.01 -0.02 0.01 -0.02 0.01 -0.02 0.01 -0.01 0.01 -0.02 0.01 -0.02 0.01 -0.01 0.01 -0.01 0.01 -0.02 0.01 -0.01 0.01 -0.01 0.02 -0.01 0.02 -0.01 0.02 -0.01 0.01 -0.01 0.02 -0.01 0.02 -0.01 0.02 -0.01 0.02 -0.01 0.02 -0.01 0.02 -0.01 0.02 -0 0.02 -0 0.02 -0 0.02 -0 0.02 -0 0 0zm0.41 0.4l-0.29 0 0 0 -0 -0.01 -0 -0.01 -0 -0.01 -0 -0 -0 -0 -0 -0.01 -0 -0.01 -0 -0 -0 -0 -0 -0.01 -0 -0 -0 -0 -0 -0.01 -0 -0.01 -0 -0 -0 -0.01 -0.01 -0 -0 -0 -0 -0 -0.01 -0 -0.01 -0 -0 -0 -0 -0 -0.01 -0 -0 -0 -0.01 -0 -0.01 -0 -0 -0 -0 -0 -0.01 -0 -0.01 -0 -0.01 -0 0 -0.29 0.02 0 0.02 0 0.02 0 0.02 0 0.02 0 0.02 0.01 0.02 0.01 0.02 0.01 0.02 0.01 0.02 0.01 0.02 0.01 0.01 0.01 0.02 0.01 0.02 0.01 0.02 0.01 0.01 0.01 0.01 0.01 0.01 0.02 0.01 0.01 0.01 0.01 0.01 0.02 0.01 0.02 0.01 0.01 0.01 0.02 0.01 0.02 0.01 0.02 0.01 0.02 0 0.02 0 0.02 0 0.02 0 0.02 0 0.02 0 0zm-0.29 8.4l0 -8.4 0.29 0 0 8.4 0 0 -0.29 0zm-0.12 0.41l0 -0.29 0 0 0.01 -0 0.01 -0 0.01 -0 0 -0 0 -0 0.01 -0 0.01 -0 0 -0 0.01 -0 0 -0 0 -0 0.01 -0 0 -0 0 -0 0.01 -0 0 -0 0 -0.01 0 -0 0 -0 0 -0.01 0 -0 0 -0 0 -0.01 0 -0 0 -0 0 -0.01 0 -0 0 -0 0 -0 0 -0.01 0 -0.01 0 -0.01 0.29 0 -0 0.02 -0 0.02 -0 0.02 -0 0.02 -0 0.02 -0.01 0.02 -0.01 0.02 -0.01 0.02 -0.01 0.02 -0.01 0.01 -0.01 0.02 -0.01 0.02 -0.01 0.02 -0.01 0.02 -0.01 0.02 -0.01 0.01 -0.01 0.01 -0.01 0.01 -0.02 0.01 -0.02 0.01 -0.01 0.01 -0.02 0.01 -0.02 0.01 -0.02 0.01 -0.02 0.01 -0.02 0.01 -0.02 0.01 -0.02 0 -0.02 0 -0.02 0 -0.02 0 -0.02 0 0 0z"/>
   </g>
   <g>
    <path class="fil1" d="M28.79 40.75c-0.14,0 -0.26,-0.12 -0.26,-0.26l0 -8.4c0,-0.14 0.12,-0.26 0.26,-0.26 0.14,0 0.26,0.12 0.26,0.26l0 8.4c0,0.15 -0.12,0.26 -0.26,0.26z"/>
    <path id="_1_4" class="fil1" d="M28.38 40.49l0.29 0 0 0 0 0.01 0 0.01 0 0.01 0 0 0 0 0 0.01 0 0.01 0 0 0 0 0 0.01 0 0.01 0 0.01 0 0 0 0 0 0.01 0 0 0 0 0.01 0 0 0 0 0 0.01 0 0 0 0 0 0.01 0 0 0 0.01 0 0.01 0 0 0 0 0 0.01 0 0.01 0 0.01 0 0 0.29 -0.02 -0 -0.02 -0 -0.02 -0 -0.02 -0 -0.02 -0 -0.02 -0.01 -0.02 -0.01 -0.02 -0.01 -0.02 -0.01 -0.02 -0.01 -0.02 -0.01 -0.01 -0.01 -0.02 -0.01 -0.02 -0.01 -0.01 -0.01 -0.01 -0.01 -0.01 -0.01 -0.01 -0.01 -0.01 -0.02 -0.01 -0.02 -0.01 -0.02 -0.01 -0.02 -0.01 -0.02 -0.01 -0.02 -0.01 -0.02 -0.01 -0.02 -0.01 -0.02 -0 -0.02 -0 -0.02 -0 -0.02 -0 -0.02 -0 -0.02 0 0zm0.29 -8.4l0 8.4 -0.29 0 0 -8.4 0 0 0.29 0zm0.12 -0.4l0 0.29 0 0 -0.01 0 -0.01 0 -0.01 0 -0 0 -0 0 -0.01 0 -0.01 0 -0 0 -0.01 0 -0 0 -0 0 -0.01 0 -0.01 0 -0 0 -0 0 -0.01 0 -0 0 -0 0.01 -0 0.01 -0 0 -0 0 -0 0.01 -0 0.01 -0 0 -0 0 -0 0.01 -0 0.01 -0 0 -0 0 -0 0.01 -0 0.01 -0 0.01 -0.29 0 0 -0.02 0 -0.02 0 -0.02 0 -0.02 0 -0.02 0.01 -0.02 0.01 -0.02 0.01 -0.02 0.01 -0.02 0.01 -0.02 0.01 -0.02 0.01 -0.02 0.01 -0.02 0.01 -0.01 0.01 -0.01 0.01 -0.01 0.01 -0.01 0.02 -0.01 0.02 -0.01 0.02 -0.01 0.01 -0.01 0.02 -0.01 0.02 -0.01 0.02 -0.01 0.02 -0.01 0.02 -0.01 0.02 -0.01 0.02 -0 0.02 -0 0.02 -0 0.02 -0 0.02 -0 0 0zm0.41 0.4l-0.29 0 0 0 -0 -0.01 -0 -0.01 -0 -0.01 -0 -0 -0 -0 -0 -0.01 -0 -0.01 -0 -0 -0 -0 -0 -0.01 -0 -0.01 -0 -0 -0 -0.01 -0.01 -0.01 -0 -0 -0 -0 -0.01 -0.01 -0 -0 -0 -0 -0 -0 -0.01 -0 -0 -0 -0 -0 -0.01 -0 -0.01 -0 -0.01 -0 -0.01 -0 -0 -0 -0 -0 -0.01 -0 -0.01 -0 -0.01 -0 0 -0.29 0.02 0 0.02 0 0.02 0 0.02 0 0.02 0 0.02 0.01 0.02 0.01 0.02 0.01 0.02 0.01 0.02 0.01 0.02 0.01 0.01 0.01 0.02 0.01 0.02 0.01 0.01 0.01 0.01 0.01 0.01 0.01 0.01 0.02 0.01 0.01 0.01 0.01 0.01 0.02 0.01 0.02 0.01 0.02 0.01 0.02 0.01 0.02 0.01 0.02 0.01 0.02 0 0.02 0 0.02 0 0.02 0 0.02 0 0.02 0 0zm-0.29 8.4l0 -8.4 0.29 0 0 8.4 0 0 -0.29 0zm-0.12 0.41l0 -0.29 0 0 0.01 -0 0.01 -0 0.01 -0 0 -0 0 -0 0.01 -0 0.01 -0 0.01 -0 0.01 -0 0 -0 0 -0 0.01 -0 0 -0 0 -0 0.01 -0.01 0 -0 0 -0 0 -0 0 -0.01 0 -0.01 0 -0 0 -0.01 0 -0.01 0 -0 0 -0 0 -0.01 0 -0.01 0 -0 0 -0 0 -0.01 0 -0.01 0 -0.01 0.29 0 -0 0.02 -0 0.02 -0 0.02 -0 0.02 -0 0.02 -0.01 0.02 -0.01 0.02 -0.01 0.02 -0.01 0.02 -0.01 0.02 -0.01 0.02 -0.01 0.02 -0.01 0.02 -0.01 0.01 -0.01 0.02 -0.01 0.01 -0.01 0.01 -0.01 0.01 -0.02 0.01 -0.02 0.01 -0.01 0.01 -0.02 0.01 -0.02 0.01 -0.02 0.01 -0.02 0.01 -0.02 0.01 -0.02 0.01 -0.02 0 -0.02 0 -0.02 0 -0.02 0 -0.02 0 0 0z"/>
   </g>
   <path class="fil1" d="M29.05 31.83l5.25 0 0 -1.57 -5.25 0 0 1.57zm5.51 0.52l-5.77 0c-0.14,0 -0.26,-0.12 -0.26,-0.26l0 -2.1c0,-0.14 0.12,-0.26 0.26,-0.26l5.77 0c0.14,0 0.26,0.12 0.26,0.26l0 2.1c0,0.15 -0.12,0.26 -0.26,0.26z"/>
   <path class="fil1" d="M29.19 31.68l4.96 0 0 -1.29 -4.96 0 0 1.29zm5.11 0.29l-5.39 0 0 -1.86 5.53 0 0 1.86 -0.14 0zm0.26 0.52l-5.77 0c-0.11,0 -0.21,-0.05 -0.29,-0.12 -0.07,-0.07 -0.12,-0.17 -0.12,-0.29l0 -2.1c0,-0.11 0.05,-0.21 0.12,-0.29 0.07,-0.07 0.18,-0.12 0.29,-0.12l5.77 0c0.11,0 0.21,0.05 0.29,0.12 0.07,0.07 0.12,0.17 0.12,0.29l0 2.1c0,0.11 -0.05,0.21 -0.12,0.29 -0.07,0.07 -0.17,0.12 -0.29,0.12zm-5.77 -0.29l5.77 0c0.03,0 0.06,-0.01 0.08,-0.03 0.02,-0.02 0.03,-0.05 0.03,-0.08l0 -2.1c0,-0.03 -0.01,-0.06 -0.03,-0.08 -0.02,-0.02 -0.05,-0.03 -0.08,-0.03l-5.77 0c-0.03,0 -0.06,0.01 -0.08,0.03 -0.02,0.02 -0.03,0.05 -0.03,0.08l0 2.1c0,0.03 0.01,0.06 0.03,0.08 0.02,0.02 0.05,0.03 0.08,0.03z"/>
   <g>
    <path class="fil1" d="M17.24 40.75c-0.14,0 -0.26,-0.12 -0.26,-0.26l0 -8.4c0,-0.14 0.12,-0.26 0.26,-0.26 0.14,0 0.26,0.12 0.26,0.26l0 8.4c0,0.15 -0.12,0.26 -0.26,0.26z"/>
    <path id="_1_5" class="fil1" d="M16.83 40.49l0.29 0 0 0 0 0.01 0 0.01 0 0.01 0 0 0 0 0 0.01 0 0.01 0 0 0 0 0 0.01 0 0.01 0 0 0 0.01 0 0.01 0 0 0 0 0 0 0.01 0.01 0 0 0 0 0.01 0 0 0 0 0 0.01 0 0.01 0 0.01 0 0.01 0 0 0 0 0 0.01 0 0.01 0 0.01 0 0 0.29 -0.02 -0 -0.02 -0 -0.02 -0 -0.02 -0 -0.02 -0 -0.02 -0.01 -0.02 -0.01 -0.02 -0.01 -0.02 -0.01 -0.02 -0.01 -0.02 -0.01 -0.01 -0.01 -0.02 -0.01 -0.02 -0.01 -0.01 -0.01 -0.01 -0.01 -0.02 -0.02 -0.01 -0.02 -0.01 -0.01 -0.01 -0.02 -0.01 -0.02 -0.01 -0.02 -0.01 -0.02 -0.01 -0.02 -0.01 -0.02 -0.01 -0.02 -0.01 -0.02 -0 -0.02 -0 -0.02 -0 -0.02 -0 -0.02 -0 -0.02 0 0zm0.29 -8.4l0 8.4 -0.29 0 0 -8.4 0 0 0.29 0zm0.12 -0.4l0 0.29 0 0 -0.01 0 -0.01 0 -0.01 0 -0 0 -0 0 -0.01 0 -0.01 0 -0.01 0 -0.01 0 -0 0 -0 0 -0.01 0 -0 0 -0 0 -0.01 0.01 -0.01 0 -0 0 -0 0 -0.01 0.01 -0 0.01 -0 0 -0 0.01 -0 0.01 -0 0 -0 0 -0 0.01 -0 0.01 -0 0 -0 0 -0 0.01 -0 0.01 -0 0.01 -0.29 0 0 -0.02 0 -0.02 0 -0.02 0 -0.02 0 -0.02 0.01 -0.02 0.01 -0.02 0.01 -0.02 0.01 -0.02 0.01 -0.02 0.01 -0.02 0.01 -0.02 0.01 -0.01 0.01 -0.01 0.01 -0.02 0.02 -0.02 0.01 -0.01 0.01 -0.01 0.02 -0.01 0.02 -0.01 0.01 -0.01 0.02 -0.01 0.02 -0.01 0.02 -0.01 0.02 -0.01 0.02 -0.01 0.02 -0.01 0.02 -0 0.02 -0 0.02 -0 0.02 -0 0.02 -0 0 0zm0.4 0.4l-0.29 0 0 0 -0 -0.01 -0 -0.01 -0 -0.01 -0 -0 -0 -0 -0 -0.01 -0 -0.01 -0 -0 -0 -0.01 -0 -0.01 -0 -0 -0 -0 -0 -0.01 -0 -0.01 -0 -0 -0 -0 -0.01 -0.01 -0 -0 -0 -0 -0.01 -0 -0.01 -0 -0 -0 -0 -0 -0.01 -0 -0 -0 -0.01 -0 -0.01 -0 -0 -0 -0 -0 -0.01 -0 -0.01 -0 -0.01 -0 0 -0.29 0.02 0 0.02 0 0.02 0 0.02 0 0.02 0 0.02 0.01 0.02 0.01 0.02 0.01 0.02 0.01 0.02 0.01 0.02 0.01 0.01 0.01 0.02 0.01 0.02 0.01 0.01 0.01 0.01 0.01 0.01 0.01 0.01 0.02 0.01 0.01 0.01 0.01 0.01 0.02 0.01 0.02 0.01 0.02 0.01 0.02 0.01 0.02 0.01 0.02 0.01 0.02 0 0.02 0 0.02 0 0.02 0 0.02 0 0.02 0 0zm-0.29 8.4l0 -8.4 0.29 0 0 8.4 0 0 -0.29 0zm-0.12 0.41l0 -0.29 0 0 0.01 -0 0.01 -0 0.01 -0 0 -0 0 -0 0.01 -0 0.01 -0 0 -0 0.01 -0 0 -0 0 -0 0.01 -0 0 -0 0 -0 0 -0 0.01 -0.01 0 -0 0 -0 0 -0 0 -0.01 0 -0.01 0 -0 0 -0.01 0 -0.01 0 -0 0 -0.01 0 -0.01 0 -0 0 -0 0 -0.01 0 -0.01 0 -0.01 0.29 0 -0 0.02 -0 0.02 -0 0.02 -0 0.02 -0 0.02 -0.01 0.02 -0.01 0.02 -0.01 0.02 -0.01 0.02 -0.01 0.02 -0.01 0.02 -0.01 0.02 -0.01 0.01 -0.01 0.02 -0.01 0.02 -0.01 0.01 -0.01 0.01 -0.01 0.01 -0.02 0.01 -0.02 0.01 -0.01 0.01 -0.02 0.01 -0.02 0.01 -0.02 0.01 -0.02 0.01 -0.02 0.01 -0.02 0.01 -0.02 0 -0.02 0 -0.02 0 -0.02 0 -0.02 0 0 0z"/>
   </g>
   <g>
    <path class="fil1" d="M12.52 40.75c-0.14,0 -0.26,-0.12 -0.26,-0.26l0 -8.4c0,-0.14 0.12,-0.26 0.26,-0.26 0.14,0 0.26,0.12 0.26,0.26l0 8.4c0,0.15 -0.12,0.26 -0.26,0.26z"/>
    <path id="_1_6" class="fil1" d="M12.11 40.49l0.29 0 0 0 0 0.01 0 0.01 0 0.01 0 0 0 0 0 0.01 0 0.01 0 0 0 0.01 0 0 0 0 0 0.01 0 0 0 0 0 0.01 0 0 0 0 0.01 0 0.01 0 0 0 0.01 0 0.01 0 0 0 0.01 0 0.01 0 0.01 0 0.01 0 0 0 0 0 0.01 0 0.01 0 0.01 0 0 0.29 -0.02 -0 -0.02 -0 -0.02 -0 -0.02 -0 -0.02 -0 -0.02 -0.01 -0.02 -0.01 -0.02 -0.01 -0.02 -0.01 -0.02 -0.01 -0.01 -0.01 -0.02 -0.01 -0.02 -0.01 -0.01 -0.01 -0.01 -0.01 -0.01 -0.01 -0.01 -0.01 -0.01 -0.01 -0.01 -0.02 -0.01 -0.02 -0.01 -0.01 -0.01 -0.02 -0.01 -0.02 -0.01 -0.02 -0.01 -0.02 -0.01 -0.02 -0.01 -0.02 -0 -0.02 -0 -0.02 -0 -0.02 -0 -0.02 -0 -0.02 0 0zm0.29 -8.4l0 8.4 -0.29 0 0 -8.4 0 0 0.29 0zm0.12 -0.4l0 0.29 0 0 -0.01 0 -0.01 0 -0.01 0 -0 0 -0 0 -0.01 0 -0.01 0 -0.01 0 -0.01 0 -0 0 -0.01 0 -0.01 0 -0 0 -0 0 -0 0 -0.01 0 -0 0 -0 0.01 -0 0.01 -0 0 -0 0.01 -0 0 -0 0 -0 0.01 -0 0 -0 0.01 -0 0.01 -0 0 -0 0 -0 0.01 -0 0.01 -0 0.01 -0.29 0 0 -0.02 0 -0.02 0 -0.02 0 -0.02 0 -0.02 0.01 -0.02 0.01 -0.02 0.01 -0.02 0.01 -0.02 0.01 -0.02 0.01 -0.02 0.01 -0.01 0.01 -0.02 0.01 -0.01 0.01 -0.01 0.01 -0.01 0.01 -0.01 0.02 -0.01 0.02 -0.01 0.02 -0.01 0.02 -0.01 0.01 -0.01 0.02 -0.01 0.02 -0.01 0.02 -0.01 0.02 -0.01 0.02 -0.01 0.02 -0 0.02 -0 0.02 -0 0.02 -0 0.02 -0 0 0zm0.41 0.4l-0.29 0 0 0 -0 -0.01 -0 -0.01 -0 -0.01 -0 -0 -0 -0 -0 -0.01 -0 -0.01 -0 -0 -0 -0.01 -0 -0 -0 -0 -0 -0.01 -0 -0 -0 -0.01 -0 -0.01 -0 -0 -0.01 -0 -0 -0 -0 -0 -0 -0 -0.01 -0 -0.01 -0 -0 -0 -0.01 -0 -0.01 -0 -0.01 -0 -0.01 -0 -0 -0 -0 -0 -0.01 -0 -0.01 -0 -0.01 -0 0 -0.29 0.02 0 0.02 0 0.02 0 0.02 0 0.02 0 0.02 0.01 0.02 0.01 0.02 0.01 0.02 0.01 0.02 0.01 0.01 0.01 0.02 0.01 0.02 0.01 0.02 0.01 0.02 0.01 0.01 0.01 0.01 0.01 0.01 0.01 0.01 0.01 0.01 0.02 0.01 0.01 0.01 0.02 0.01 0.02 0.01 0.02 0.01 0.02 0.01 0.02 0.01 0.02 0 0.02 0 0.02 0 0.02 0 0.02 0 0.02 0 0zm-0.29 8.4l0 -8.4 0.29 0 0 8.4 0 0 -0.29 0zm-0.12 0.41l0 -0.29 0 0 0.01 -0 0.01 -0 0.01 -0 0 -0 0 -0 0.01 -0 0.01 -0 0.01 -0 0.01 -0 0 -0 0.01 -0 0.01 -0 0 -0 0.01 -0 0.01 -0 0 -0 0 -0 0 -0.01 0 -0 0 -0 0 -0.01 0 -0 0 -0 0 -0.01 0 -0 0 -0.01 0 -0.01 0 -0 0 -0 0 -0.01 0 -0.01 0 -0.01 0.29 0 -0 0.02 -0 0.02 -0 0.02 -0 0.02 -0 0.02 -0.01 0.02 -0.01 0.02 -0.01 0.02 -0.01 0.02 -0.01 0.02 -0.01 0.02 -0.01 0.01 -0.01 0.02 -0.01 0.02 -0.01 0.01 -0.01 0.01 -0.01 0.01 -0.01 0.01 -0.01 0.01 -0.02 0.01 -0.02 0.01 -0.01 0.01 -0.02 0.01 -0.02 0.01 -0.02 0.01 -0.02 0.01 -0.02 0.01 -0.02 0 -0.02 0 -0.02 0 -0.02 0 -0.02 0 0 0z"/>
   </g>
   <path class="fil1" d="M11.73 31.83l5.25 0 0 -1.57 -5.25 0 0 1.57zm5.51 0.52l-5.77 0c-0.14,0 -0.26,-0.12 -0.26,-0.26l0 -2.1c0,-0.14 0.12,-0.26 0.26,-0.26l5.77 0c0.14,0 0.26,0.12 0.26,0.26l0 2.1c0,0.15 -0.12,0.26 -0.26,0.26z"/>
   <path class="fil1" d="M11.87 31.68l4.96 0 0 -1.29 -4.96 0 0 1.29zm5.11 0.29l-5.39 0 0 -1.86 5.53 0 0 1.86 -0.14 0zm0.26 0.52l-5.77 0c-0.11,0 -0.21,-0.05 -0.29,-0.12 -0.07,-0.07 -0.12,-0.17 -0.12,-0.29l0 -2.1c0,-0.11 0.05,-0.21 0.12,-0.29 0.07,-0.07 0.18,-0.12 0.29,-0.12l5.77 0c0.11,0 0.21,0.05 0.29,0.12 0.07,0.07 0.12,0.17 0.12,0.29l0 2.1c0,0.11 -0.05,0.21 -0.12,0.29 -0.07,0.07 -0.17,0.12 -0.29,0.12zm-5.77 -0.29l5.77 0c0.03,0 0.06,-0.01 0.08,-0.03 0.02,-0.02 0.03,-0.05 0.03,-0.08l0 -2.1c0,-0.03 -0.01,-0.06 -0.03,-0.08 -0.02,-0.02 -0.05,-0.03 -0.08,-0.03l-5.77 0c-0.03,0 -0.06,0.01 -0.08,0.03 -0.02,0.02 -0.03,0.05 -0.03,0.08l0 2.1c0,0.03 0.01,0.06 0.03,0.08 0.02,0.02 0.05,0.03 0.08,0.03z"/>
   <g>
    <path class="fil1" d="M34.56 40.75l-9.45 0c-0.14,0 -0.26,-0.12 -0.26,-0.26 0,-0.14 0.12,-0.26 0.26,-0.26l9.45 0c0.14,0 0.26,0.12 0.26,0.26 0,0.15 -0.12,0.26 -0.26,0.26z"/>
    <path id="_1_7" class="fil1" d="M25.11 40.61l9.45 0 0 0.29 -9.45 0 0 0 0 -0.29zm-0.4 -0.12l0.29 0 0 0 0 0.01 0 0.01 0 0.01 0 0 0 0 0 0.01 0 0.01 0 0 0 0.01 0 0 0 0 0 0.01 0 0.01 0 0 0 0 0 0.01 0 0 0.01 0 0.01 0 0 0 0.01 0 0 0 0 0 0.01 0 0 0 0.01 0 0.01 0 0 0 0 0 0.01 0 0.01 0 0.01 0 0 0.29 -0.02 -0 -0.02 -0 -0.02 -0 -0.02 -0 -0.02 -0 -0.02 -0.01 -0.02 -0.01 -0.02 -0.01 -0.02 -0.01 -0.02 -0.01 -0.02 -0.01 -0.01 -0.01 -0.02 -0.01 -0.01 -0.01 -0.01 -0.01 -0.01 -0.01 -0.01 -0.01 -0.01 -0.02 -0.01 -0.02 -0.01 -0.02 -0.01 -0.01 -0.01 -0.02 -0.01 -0.02 -0.01 -0.02 -0.01 -0.02 -0.01 -0.02 -0.01 -0.02 -0 -0.02 -0 -0.02 -0 -0.02 -0 -0.02 -0 -0.02 0 0zm0.4 -0.4l0 0.29 0 0 -0.01 0 -0.01 0 -0.01 0 -0 0 -0 0 -0.01 0 -0.01 0 -0 0 -0.01 0 -0.01 0 -0 0 -0 0 -0.01 0 -0.01 0 -0 0 -0 0 -0.01 0.01 -0 0 -0 0 -0 0.01 -0 0.01 -0 0 -0 0 -0 0.01 -0 0 -0 0.01 -0 0.01 -0 0 -0 0 -0 0.01 -0 0.01 -0 0.01 -0.29 0 0 -0.02 0 -0.02 0 -0.02 0 -0.02 0 -0.02 0.01 -0.02 0.01 -0.02 0.01 -0.02 0.01 -0.02 0.01 -0.02 0.01 -0.02 0.01 -0.01 0.01 -0.02 0.01 -0.02 0.01 -0.01 0.01 -0.01 0.01 -0.01 0.02 -0.01 0.01 -0.01 0.01 -0.01 0.02 -0.01 0.02 -0.01 0.02 -0.01 0.02 -0.01 0.02 -0.01 0.02 -0.01 0.02 -0.01 0.02 -0 0.02 -0 0.02 -0 0.02 -0 0.02 -0 0 0zm9.45 0.29l-9.45 0 0 -0.29 9.45 0 0 0 0 0.29zm0.41 0.12l-0.29 0 0 0 -0 -0.01 -0 -0.01 -0 -0.01 -0 -0 -0 -0 -0 -0.01 -0 -0.01 -0 -0 -0 -0.01 -0 -0 -0 -0 -0 -0.01 -0 -0 -0 -0 -0 -0 -0.01 -0.01 -0 -0 -0 -0 -0.01 -0 -0.01 -0 -0 -0 -0 -0 -0 -0 -0.01 -0 -0.01 -0 -0.01 -0 -0.01 -0 -0 -0 -0 -0 -0.01 -0 -0.01 -0 -0.01 -0 0 -0.29 0.02 0 0.02 0 0.02 0 0.02 0 0.02 0 0.02 0.01 0.02 0.01 0.02 0.01 0.02 0.01 0.02 0.01 0.02 0.01 0.02 0.01 0.01 0.01 0.01 0.01 0.02 0.01 0.01 0.01 0.01 0.01 0.01 0.01 0.01 0.02 0.01 0.02 0.01 0.01 0.01 0.02 0.01 0.02 0.01 0.02 0.01 0.02 0.01 0.02 0.01 0.02 0 0.02 0 0.02 0 0.02 0 0.02 0 0.02 0 0zm-0.41 0.41l0 -0.29 0 0 0.01 -0 0.01 -0 0.01 -0 0 -0 0 -0 0.01 -0 0.01 -0 0.01 -0 0.01 -0 0 -0 0.01 -0 0.01 -0 0 -0 0.01 -0 0.01 -0 0 -0 0 -0 0 -0.01 0 -0 0 -0 0 -0.01 0 -0 0 -0 0 -0.01 0 -0 0 -0.01 0 -0.01 0 -0 0 -0 0 -0.01 0 -0.01 0 -0.01 0.29 0 -0 0.02 -0 0.02 -0 0.02 -0 0.02 -0 0.02 -0.01 0.02 -0.01 0.02 -0.01 0.02 -0.01 0.02 -0.01 0.02 -0.01 0.02 -0.01 0.01 -0.01 0.02 -0.01 0.02 -0.01 0.01 -0.01 0.01 -0.01 0.01 -0.01 0.01 -0.01 0.01 -0.02 0.01 -0.02 0.01 -0.01 0.01 -0.02 0.01 -0.02 0.01 -0.02 0.01 -0.02 0.01 -0.02 0.01 -0.02 0 -0.02 0 -0.02 0 -0.02 0 -0.02 0 0 0z"/>
   </g>
   <g>
    <path class="fil1" d="M20.91 40.75l-9.45 0c-0.14,0 -0.26,-0.12 -0.26,-0.26 0,-0.14 0.12,-0.26 0.26,-0.26l9.45 0c0.14,0 0.26,0.12 0.26,0.26 0,0.15 -0.12,0.26 -0.26,0.26z"/>
    <path id="_1_8" class="fil1" d="M11.47 40.61l9.45 0 0 0.29 -9.45 0 0 0 0 -0.29zm-0.41 -0.12l0.29 0 0 0 0 0.01 0 0.01 0 0.01 0 0 0 0 0 0.01 0 0.01 0 0 0 0.01 0 0 0 0 0 0.01 0 0 0 0 0 0.01 0 0 0 0 0.01 0 0.01 0 0 0 0.01 0 0.01 0 0 0 0.01 0 0.01 0 0.01 0 0.01 0 0 0 0 0 0.01 0 0.01 0 0.01 0 0 0.29 -0.02 -0 -0.02 -0 -0.02 -0 -0.02 -0 -0.02 -0 -0.02 -0.01 -0.02 -0.01 -0.02 -0.01 -0.02 -0.01 -0.02 -0.01 -0.01 -0.01 -0.02 -0.01 -0.02 -0.01 -0.01 -0.01 -0.01 -0.01 -0.01 -0.01 -0.01 -0.01 -0.01 -0.01 -0.01 -0.02 -0.01 -0.02 -0.01 -0.01 -0.01 -0.02 -0.01 -0.02 -0.01 -0.02 -0.01 -0.02 -0.01 -0.02 -0.01 -0.02 -0 -0.02 -0 -0.02 -0 -0.02 -0 -0.02 -0 -0.02 0 0zm0.41 -0.4l0 0.29 0 0 -0.01 0 -0.01 0 -0.01 0 -0 0 -0 0 -0.01 0 -0.01 0 -0.01 0 -0.01 0 -0 0 -0 0 -0 0 -0.01 0 -0.01 0 -0 0 -0 0 -0.01 0.01 -0 0 -0 0 -0 0 -0 0.01 -0 0 -0 0 -0 0.01 -0 0 -0 0.01 -0 0.01 -0 0 -0 0 -0 0.01 -0 0.01 -0 0.01 -0.29 0 0 -0.02 0 -0.02 0 -0.02 0 -0.02 0 -0.02 0.01 -0.02 0.01 -0.02 0.01 -0.02 0.01 -0.02 0.01 -0.02 0.01 -0.02 0.01 -0.01 0.01 -0.02 0.01 -0.02 0.01 -0.01 0.01 -0.01 0.01 -0.01 0.02 -0.01 0.01 -0.01 0.01 -0.01 0.02 -0.01 0.02 -0.01 0.02 -0.01 0.02 -0.01 0.02 -0.01 0.02 -0.01 0.02 -0.01 0.02 -0 0.02 -0 0.02 -0 0.02 -0 0.02 -0 0 0zm9.45 0.29l-9.45 0 0 -0.29 9.45 0 0 0 0 0.29zm0.41 0.12l-0.29 0 0 0 -0 -0.01 -0 -0.01 -0 -0.01 -0 -0 -0 -0 -0 -0.01 -0 -0.01 -0 -0 -0 -0.01 -0 -0 -0 -0 -0 -0.01 -0 -0 -0 -0 -0 -0 -0.01 -0.01 -0 -0 -0 -0 -0.01 -0 -0.01 -0 -0 -0 -0 -0 -0 -0 -0.01 -0 -0.01 -0 -0.01 -0 -0.01 -0 -0 -0 -0 -0 -0.01 -0 -0.01 -0 -0.01 -0 0 -0.29 0.02 0 0.02 0 0.02 0 0.02 0 0.02 0 0.02 0.01 0.02 0.01 0.02 0.01 0.02 0.01 0.02 0.01 0.02 0.01 0.02 0.01 0.01 0.01 0.01 0.01 0.02 0.01 0.01 0.01 0.01 0.01 0.01 0.01 0.01 0.02 0.01 0.02 0.01 0.01 0.01 0.02 0.01 0.02 0.01 0.02 0.01 0.02 0.01 0.02 0.01 0.02 0 0.02 0 0.02 0 0.02 0 0.02 0 0.02 0 0zm-0.41 0.41l0 -0.29 0 0 0.01 -0 0.01 -0 0.01 -0 0 -0 0 -0 0.01 -0 0.01 -0 0.01 -0 0.01 -0 0 -0 0.01 -0 0.01 -0 0 -0 0.01 -0 0.01 -0 0 -0 0 -0 0 -0.01 0 -0 0 -0 0 -0.01 0 -0 0 -0 0 -0.01 0 -0 0 -0.01 0 -0.01 0 -0 0 -0 0 -0.01 0 -0.01 0 -0.01 0.29 0 -0 0.02 -0 0.02 -0 0.02 -0 0.02 -0 0.02 -0.01 0.02 -0.01 0.02 -0.01 0.02 -0.01 0.02 -0.01 0.02 -0.01 0.02 -0.01 0.01 -0.01 0.02 -0.01 0.02 -0.01 0.01 -0.01 0.01 -0.01 0.01 -0.01 0.01 -0.01 0.01 -0.02 0.01 -0.02 0.01 -0.01 0.01 -0.02 0.01 -0.02 0.01 -0.02 0.01 -0.02 0.01 -0.02 0.01 -0.02 0 -0.02 0 -0.02 0 -0.02 0 -0.02 0 0 0z"/>
   </g>
   <g>
    <path class="fil1" d="M21.18 40.23l3.67 0 0 -4.72 -3.67 0 0 4.72zm3.94 0.52l-4.2 0c-0.14,0 -0.26,-0.12 -0.26,-0.26l0 -5.25c0,-0.15 0.12,-0.26 0.26,-0.26l4.2 0c0.14,0 0.26,0.12 0.26,0.26l0 5.25c0,0.15 -0.12,0.26 -0.26,0.26z"/>
    <path id="_1_9" class="fil1" d="M24.85 40.37l-3.67 0 0 -0.29 3.67 0 0.14 0.14 -0.14 0.14zm0.14 -0.14l0 0.14 -0.14 0 0.14 -0.14zm0 -4.72l0 4.72 -0.29 0 0 -4.72 0.14 -0.14 0.14 0.14zm-0.14 -0.14l0.14 0 0 0.14 -0.14 -0.14zm-3.67 0l3.67 0 0 0.29 -3.67 0 -0.14 -0.14 0.14 -0.14zm-0.14 0.14l0 -0.14 0.14 0 -0.14 0.14zm0 4.72l0 -4.72 0.29 0 0 4.72 -0.14 0.14 -0.14 -0.14zm0.14 0.14l-0.14 0 0 -0.14 0.14 0.14zm-0.26 0.24l4.2 0 0 0.29 -4.2 0 0 0 0 -0.29zm-0.41 -0.12l0.29 0 0 0 0 0.01 0 0.01 0 0.01 0 0 0 0 0 0.01 0 0.01 0 0 0 0.01 0 0 0 0 0 0.01 0 0 0 0 0 0.01 0 0 0 0 0.01 0 0.01 0 0 0 0.01 0 0.01 0 0 0 0.01 0 0.01 0 0.01 0 0.01 0 0 0 0 0 0.01 0 0.01 0 0.01 0 0 0.29 -0.02 -0 -0.02 -0 -0.02 -0 -0.02 -0 -0.02 -0 -0.02 -0.01 -0.02 -0.01 -0.02 -0.01 -0.02 -0.01 -0.02 -0.01 -0.01 -0.01 -0.02 -0.01 -0.02 -0.01 -0.01 -0.01 -0.01 -0.01 -0.01 -0.01 -0.01 -0.01 -0.01 -0.01 -0.01 -0.02 -0.01 -0.02 -0.01 -0.01 -0.01 -0.02 -0.01 -0.02 -0.01 -0.02 -0.01 -0.02 -0.01 -0.02 -0.01 -0.02 -0 -0.02 -0 -0.02 -0 -0.02 -0 -0.02 -0 -0.02 0 0zm0.29 -5.25l0 5.25 -0.29 0 0 -5.25 0 0 0.29 0zm0.12 -0.41l0 0.29 0 0 -0.01 0 -0.01 0 -0.01 0 -0 0 -0 0 -0.01 0 -0.01 0 -0.01 0 -0.01 0 -0 0 -0 0 -0 0 -0.01 0 -0.01 0 -0 0 -0 0 -0 0 -0.01 0.01 -0 0 -0 0 -0 0.01 -0 0 -0 0 -0 0.01 -0 0 -0 0.01 -0 0.01 -0 0 -0 0 -0 0.01 -0 0.01 -0 0.01 -0.29 0 0 -0.02 0 -0.02 0 -0.02 0 -0.02 0 -0.02 0.01 -0.02 0.01 -0.02 0.01 -0.02 0.01 -0.02 0.01 -0.02 0.01 -0.02 0.01 -0.01 0.01 -0.02 0.01 -0.02 0.01 -0.01 0.01 -0.01 0.01 -0.01 0.02 -0.01 0.01 -0.01 0.01 -0.01 0.02 -0.01 0.02 -0.01 0.02 -0.01 0.02 -0.01 0.02 -0.01 0.02 -0.01 0.02 -0.01 0.02 -0 0.02 -0 0.02 -0 0.02 -0 0.02 -0 0 0zm4.2 0.29l-4.2 0 0 -0.29 4.2 0 0 0 0 0.29zm0.41 0.12l-0.29 0 0 0 -0 -0.01 -0 -0.01 -0 -0.01 -0 -0 -0 -0 -0 -0.01 -0 -0.01 -0 -0 -0 -0.01 -0 -0 -0 -0 -0 -0.01 -0 -0 -0 -0 -0.01 -0.01 -0 -0 -0 -0 -0 -0 -0.01 -0 -0.01 -0 -0 -0 -0 -0 -0 -0 -0.01 -0 -0.01 -0 -0.01 -0 -0.01 -0 -0 -0 -0 -0 -0.01 -0 -0.01 -0 -0.01 -0 0 -0.29 0.02 0 0.02 0 0.02 0 0.02 0 0.02 0 0.02 0.01 0.02 0.01 0.02 0.01 0.02 0.01 0.02 0.01 0.02 0.01 0.02 0.01 0.01 0.01 0.01 0.01 0.02 0.01 0.01 0.01 0.01 0.01 0.01 0.01 0.01 0.02 0.01 0.02 0.01 0.01 0.01 0.02 0.01 0.02 0.01 0.02 0.01 0.02 0.01 0.02 0.01 0.02 0 0.02 0 0.02 0 0.02 0 0.02 0 0.02 0 0zm-0.29 5.25l0 -5.25 0.29 0 0 5.25 0 0 -0.29 0zm-0.12 0.41l0 -0.29 0 0 0.01 -0 0.01 -0 0.01 -0 0 -0 0 -0 0.01 -0 0.01 -0 0.01 -0 0.01 -0 0 -0 0.01 -0 0.01 -0 0 -0 0.01 -0 0.01 -0 0 -0 0 -0 0 -0.01 0 -0 0 -0 0 -0.01 0 -0 0 -0 0 -0.01 0 -0 0 -0.01 0 -0.01 0 -0 0 -0 0 -0.01 0 -0.01 0 -0.01 0.29 0 -0 0.02 -0 0.02 -0 0.02 -0 0.02 -0 0.02 -0.01 0.02 -0.01 0.02 -0.01 0.02 -0.01 0.02 -0.01 0.02 -0.01 0.02 -0.01 0.01 -0.01 0.02 -0.01 0.02 -0.01 0.01 -0.01 0.01 -0.01 0.01 -0.01 0.01 -0.01 0.01 -0.02 0.01 -0.02 0.01 -0.01 0.01 -0.02 0.01 -0.02 0.01 -0.02 0.01 -0.02 0.01 -0.02 0.01 -0.02 0 -0.02 0 -0.02 0 -0.02 0 -0.02 0 0 0z"/>
   </g>
   <path class="fil1" d="M33.51 38.13l-4.72 0c-0.14,0 -0.26,-0.12 -0.26,-0.26 0,-0.15 0.12,-0.26 0.26,-0.26l4.72 0c0.14,0 0.26,0.12 0.26,0.26 0,0.14 -0.12,0.26 -0.26,0.26z"/>
   <path class="fil1" d="M33.51 38.27l-4.72 0c-0.11,0 -0.21,-0.05 -0.29,-0.12 -0.07,-0.07 -0.12,-0.18 -0.12,-0.29 0,-0.11 0.05,-0.21 0.12,-0.29 0.07,-0.07 0.18,-0.12 0.29,-0.12l4.72 0c0.11,0 0.21,0.05 0.29,0.12 0.07,0.07 0.12,0.18 0.12,0.29 0,0.11 -0.05,0.21 -0.12,0.29 -0.07,0.07 -0.18,0.12 -0.29,0.12zm-4.72 -0.29l4.72 0c0.03,0 0.06,-0.01 0.08,-0.04 0.02,-0.02 0.03,-0.05 0.03,-0.08 0,-0.03 -0.01,-0.06 -0.03,-0.08 -0.02,-0.02 -0.05,-0.03 -0.08,-0.03l-4.72 0c-0.03,0 -0.06,0.01 -0.08,0.03 -0.02,0.02 -0.03,0.05 -0.03,0.08 0,0.03 0.01,0.06 0.04,0.08 0.02,0.02 0.05,0.04 0.08,0.04z"/>
   <path class="fil1" d="M17.24 38.13l-4.72 0c-0.14,0 -0.26,-0.12 -0.26,-0.26 0,-0.15 0.12,-0.26 0.26,-0.26l4.72 0c0.14,0 0.26,0.12 0.26,0.26 0,0.14 -0.12,0.26 -0.26,0.26z"/>
   <path class="fil1" d="M17.24 38.27l-4.72 0c-0.11,0 -0.21,-0.05 -0.29,-0.12 -0.07,-0.07 -0.12,-0.18 -0.12,-0.29 0,-0.11 0.05,-0.21 0.12,-0.29 0.07,-0.07 0.18,-0.12 0.29,-0.12l4.72 0c0.11,0 0.21,0.05 0.29,0.12 0.07,0.07 0.12,0.17 0.12,0.29 0,0.11 -0.05,0.21 -0.12,0.29 -0.07,0.07 -0.18,0.12 -0.29,0.12zm-4.72 -0.29l4.72 0c0.03,0 0.06,-0.01 0.08,-0.03 0.02,-0.02 0.03,-0.05 0.03,-0.08 0,-0.03 -0.01,-0.06 -0.03,-0.08 -0.02,-0.02 -0.05,-0.03 -0.08,-0.03l-4.72 0c-0.03,0 -0.06,0.01 -0.08,0.03 -0.02,0.02 -0.03,0.05 -0.03,0.08 0,0.03 0.01,0.06 0.03,0.08 0.02,0.02 0.05,0.04 0.08,0.04z"/>
   <path class="fil1" d="M30.36 28.15l-14.7 0c-0.14,0 -0.26,-0.12 -0.26,-0.26l0 -2.1c0,-0.14 0.12,-0.26 0.26,-0.26 0.14,0 0.26,0.12 0.26,0.26l0 1.84 14.17 0 0 -1.84c0,-0.14 0.12,-0.26 0.26,-0.26 0.14,0 0.26,0.12 0.26,0.26l0 2.1c0,0.14 -0.12,0.26 -0.26,0.26z"/>
   <path class="fil1" d="M30.36 28.3l-14.7 0c-0.11,0 -0.21,-0.05 -0.29,-0.12 -0.07,-0.07 -0.12,-0.18 -0.12,-0.29l0 -2.1c0,-0.11 0.05,-0.21 0.12,-0.29 0.07,-0.07 0.17,-0.12 0.29,-0.12 0.11,0 0.21,0.05 0.29,0.12 0.07,0.07 0.12,0.18 0.12,0.29l0 1.69 13.88 0 0 -1.69c0,-0.11 0.05,-0.21 0.12,-0.29 0.07,-0.07 0.18,-0.12 0.29,-0.12 0.11,0 0.21,0.05 0.29,0.12 0.07,0.07 0.12,0.18 0.12,0.29l0 2.1c0,0.11 -0.05,0.21 -0.12,0.29 -0.07,0.07 -0.17,0.12 -0.29,0.12zm-14.7 -0.29l14.7 0c0.03,0 0.06,-0.01 0.08,-0.03 0.02,-0.02 0.03,-0.05 0.03,-0.08l0 -2.1c0,-0.03 -0.01,-0.06 -0.03,-0.08 -0.02,-0.02 -0.05,-0.03 -0.08,-0.03 -0.03,0 -0.06,0.01 -0.08,0.03 -0.02,0.02 -0.03,0.05 -0.03,0.08l0 1.98 -14.46 0 0 -1.98c0,-0.03 -0.01,-0.06 -0.03,-0.08 -0.02,-0.02 -0.05,-0.03 -0.08,-0.03 -0.03,0 -0.06,0.01 -0.08,0.03 -0.02,0.02 -0.03,0.05 -0.03,0.08l0 2.1c0,0.03 0.01,0.06 0.03,0.08 0.02,0.02 0.05,0.03 0.08,0.03z"/>
   <path class="fil1" d="M16.48 25.53l13.06 0 -6.53 -4.66 -6.53 4.66zm13.88 0.53l-14.7 0c-0.11,0 -0.22,-0.07 -0.25,-0.18 -0.03,-0.11 0,-0.23 0.1,-0.29l7.35 -5.25c0.09,-0.07 0.21,-0.07 0.3,0l7.33 5.24c0.08,0.05 0.12,0.13 0.12,0.22 0,0.14 -0.12,0.26 -0.26,0.26z"/>
   <path class="fil1" d="M16.93 25.39l12.17 0 -6.08 -4.34 -6.08 4.34zm12.61 0.29l-13.5 0 6.97 -4.98 6.98 4.98 -0.45 0zm0.82 0.53l-14.7 0c-0.09,0 -0.17,-0.03 -0.24,-0.08 -0.07,-0.05 -0.12,-0.12 -0.15,-0.2 -0.03,-0.08 -0.02,-0.17 0,-0.25 0.03,-0.08 0.08,-0.15 0.15,-0.2l7.35 -5.25c0.07,-0.05 0.15,-0.08 0.24,-0.08 0.08,0 0.16,0.03 0.24,0.08l7.33 5.24c0.06,0.04 0.1,0.09 0.13,0.14 0.03,0.06 0.05,0.13 0.05,0.2 0,0.11 -0.05,0.21 -0.12,0.29 -0.07,0.07 -0.17,0.12 -0.29,0.12zm-14.7 -0.29l14.7 0c0.03,0 0.06,-0.01 0.08,-0.03 0.02,-0.02 0.03,-0.05 0.03,-0.08 0,-0.02 -0.01,-0.04 -0.02,-0.06 -0.01,-0.02 -0.02,-0.03 -0.04,-0.04l-7.34 -5.24c-0.02,-0.01 -0.05,-0.02 -0.07,-0.02 -0.02,0 -0.05,0.01 -0.07,0.02l-7.35 5.25c-0.02,0.01 -0.04,0.04 -0.04,0.06 -0.01,0.02 -0.01,0.05 -0,0.07 0.01,0.02 0.02,0.05 0.04,0.06 0.02,0.01 0.05,0.02 0.07,0.02z"/>
   <path class="fil1" d="M20.13 31.83l1.57 0 0 -1.57 -1.57 0 0 1.57zm1.84 0.52l-2.1 0c-0.14,0 -0.26,-0.12 -0.26,-0.26l0 -2.1c0,-0.14 0.12,-0.26 0.26,-0.26l2.1 0c0.14,0 0.26,0.12 0.26,0.26l0 2.1c0,0.15 -0.12,0.26 -0.26,0.26z"/>
   <path class="fil1" d="M20.27 31.68l1.29 0 0 -1.29 -1.29 0 0 1.29zm1.43 0.29l-1.72 0 0 -1.86 1.86 0 0 1.86 -0.14 0zm0.26 0.52l-2.1 0c-0.11,0 -0.21,-0.05 -0.29,-0.12 -0.07,-0.07 -0.12,-0.17 -0.12,-0.29l0 -2.1c0,-0.11 0.05,-0.21 0.12,-0.29 0.07,-0.07 0.18,-0.12 0.29,-0.12l2.1 0c0.11,0 0.21,0.05 0.29,0.12 0.07,0.07 0.12,0.18 0.12,0.29l0 2.1c0,0.11 -0.05,0.21 -0.12,0.29 -0.07,0.07 -0.17,0.12 -0.29,0.12zm-2.1 -0.29l2.1 0c0.03,0 0.06,-0.01 0.08,-0.03 0.02,-0.02 0.03,-0.05 0.03,-0.08l0 -2.1c0,-0.03 -0.01,-0.06 -0.03,-0.08 -0.02,-0.02 -0.05,-0.03 -0.08,-0.03l-2.1 0c-0.03,0 -0.06,0.01 -0.08,0.03 -0.02,0.02 -0.03,0.05 -0.03,0.08l0 2.1c0,0.03 0.01,0.06 0.03,0.08 0.02,0.02 0.05,0.03 0.08,0.03z"/>
   <path class="fil1" d="M24.33 31.83l1.57 0 0 -1.57 -1.57 0 0 1.57zm1.84 0.52l-2.1 0c-0.15,0 -0.26,-0.12 -0.26,-0.26l0 -2.1c0,-0.14 0.12,-0.26 0.26,-0.26l2.1 0c0.14,0 0.26,0.12 0.26,0.26l0 2.1c0,0.15 -0.12,0.26 -0.26,0.26z"/>
   <path class="fil1" d="M24.47 31.68l1.29 0 0 -1.29 -1.29 0 0 1.29zm1.43 0.29l-1.72 0 0 -1.86 1.86 0 0 1.86 -0.14 0zm0.26 0.52l-2.1 0c-0.11,0 -0.21,-0.05 -0.29,-0.12 -0.07,-0.07 -0.12,-0.17 -0.12,-0.29l0 -2.1c0,-0.11 0.05,-0.21 0.12,-0.29 0.07,-0.07 0.18,-0.12 0.29,-0.12l2.1 0c0.11,0 0.21,0.05 0.29,0.12 0.07,0.07 0.12,0.18 0.12,0.29l0 2.1c0,0.11 -0.05,0.21 -0.12,0.29 -0.07,0.07 -0.17,0.12 -0.29,0.12zm-2.1 -0.29l2.1 0c0.03,0 0.06,-0.01 0.08,-0.03 0.02,-0.02 0.03,-0.05 0.03,-0.08l0 -2.1c0,-0.03 -0.01,-0.06 -0.03,-0.08 -0.02,-0.02 -0.05,-0.03 -0.08,-0.03l-2.1 0c-0.03,0 -0.06,0.01 -0.09,0.03 -0.02,0.02 -0.03,0.05 -0.03,0.08l0 2.1c0,0.03 0.01,0.06 0.03,0.08 0.02,0.02 0.05,0.03 0.09,0.03z"/>
   <path class="fil1" d="M23.01 17.13c-0.14,0 -0.26,-0.12 -0.26,-0.26l0 -0.53c0,-0.15 0.12,-0.26 0.26,-0.26 0.15,0 0.26,0.12 0.26,0.26l0 0.53c0,0.14 -0.12,0.26 -0.26,0.26z"/>
   <path class="fil1" d="M23.01 17.28c-0.11,0 -0.21,-0.05 -0.29,-0.12 -0.07,-0.07 -0.12,-0.17 -0.12,-0.29l0 -0.53c0,-0.11 0.05,-0.21 0.12,-0.29 0.07,-0.07 0.17,-0.12 0.29,-0.12 0.11,0 0.21,0.05 0.29,0.12 0.07,0.07 0.12,0.18 0.12,0.29l0 0.53c0,0.11 -0.05,0.21 -0.12,0.29 -0.07,0.07 -0.17,0.12 -0.29,0.12zm-0.08 -0.32c0.02,0.02 0.05,0.03 0.08,0.03 0.03,0 0.06,-0.01 0.08,-0.03 0.02,-0.02 0.03,-0.05 0.03,-0.08l0 -0.53c0,-0.03 -0.01,-0.06 -0.03,-0.08 -0.02,-0.02 -0.05,-0.03 -0.08,-0.03 -0.03,0 -0.06,0.01 -0.08,0.03 -0.02,0.02 -0.03,0.05 -0.03,0.08l0 0.53c0,0.03 0.01,0.06 0.03,0.08z"/>
   <path class="fil1" d="M23.01 20.81c-0.14,0 -0.26,-0.12 -0.26,-0.26l0 -1.57c0,-0.14 0.12,-0.26 0.26,-0.26 0.15,0 0.26,0.12 0.26,0.26l0 1.57c0,0.15 -0.12,0.26 -0.26,0.26z"/>
   <path class="fil1" d="M23.01 20.95c-0.11,0 -0.21,-0.05 -0.29,-0.12 -0.07,-0.07 -0.12,-0.17 -0.12,-0.29l0 -1.57c0,-0.11 0.05,-0.21 0.12,-0.29 0.07,-0.07 0.18,-0.12 0.29,-0.12 0.11,0 0.21,0.05 0.29,0.12 0.07,0.07 0.12,0.18 0.12,0.29l0 1.57c0,0.11 -0.05,0.21 -0.12,0.29 -0.07,0.07 -0.17,0.12 -0.29,0.12zm-0.08 -0.32c0.02,0.02 0.05,0.03 0.08,0.03 0.03,0 0.06,-0.01 0.08,-0.03 0.02,-0.02 0.03,-0.05 0.03,-0.08l0 -1.57c0,-0.03 -0.01,-0.06 -0.03,-0.08 -0.02,-0.02 -0.05,-0.03 -0.08,-0.03 -0.03,0 -0.06,0.01 -0.08,0.03 -0.02,0.02 -0.03,0.05 -0.03,0.08l0 1.57c0,0.03 0.01,0.06 0.03,0.08z"/>
   <path class="fil1" d="M23.28 18.71l3.15 0 0 -1.57 -3.15 0 0 1.57zm3.41 0.53l-3.67 0c-0.14,0 -0.26,-0.12 -0.26,-0.26l0 -2.1c0,-0.15 0.12,-0.26 0.26,-0.26l3.67 0c0.14,0 0.26,0.12 0.26,0.26l0 2.1c0,0.15 -0.12,0.26 -0.26,0.26z"/>
   <path class="fil1" d="M23.42 18.56l2.86 0 0 -1.29 -2.86 0 0 1.29zm3.01 0.29l-3.29 0 0 -1.86 3.44 0 0 1.86 -0.14 0zm0.26 0.53l-3.67 0c-0.11,0 -0.21,-0.05 -0.29,-0.12 -0.07,-0.07 -0.12,-0.18 -0.12,-0.29l0 -2.1c0,-0.11 0.05,-0.21 0.12,-0.29 0.07,-0.07 0.17,-0.12 0.29,-0.12l3.67 0c0.11,0 0.21,0.05 0.29,0.12 0.07,0.07 0.12,0.18 0.12,0.29l0 2.1c0,0.11 -0.05,0.21 -0.12,0.29 -0.07,0.07 -0.17,0.12 -0.29,0.12zm-3.67 -0.29l3.67 0c0.03,0 0.06,-0.01 0.08,-0.03 0.02,-0.02 0.03,-0.05 0.03,-0.08l0 -2.1c0,-0.03 -0.01,-0.06 -0.03,-0.08 -0.02,-0.02 -0.05,-0.03 -0.08,-0.03l-3.67 0c-0.03,0 -0.06,0.01 -0.08,0.03 -0.02,0.02 -0.03,0.05 -0.03,0.08l0 2.1c0,0.03 0.01,0.06 0.03,0.08 0.02,0.02 0.05,0.03 0.08,0.03z"/>
   <path class="fil1" d="M30.36 35.5c-0.14,0 -0.26,-0.12 -0.26,-0.26l0 -0.53c0,-0.14 0.12,-0.26 0.26,-0.26 0.14,0 0.26,0.12 0.26,0.26l0 0.53c0,0.14 -0.12,0.26 -0.26,0.26z"/>
   <path class="fil1" d="M30.36 35.64c-0.11,0 -0.21,-0.05 -0.29,-0.12 -0.07,-0.07 -0.12,-0.18 -0.12,-0.29l0 -0.52c0,-0.11 0.05,-0.21 0.12,-0.29 0.07,-0.07 0.18,-0.12 0.29,-0.12 0.11,0 0.21,0.05 0.29,0.12 0.07,0.07 0.12,0.18 0.12,0.29l0 0.52c0,0.11 -0.05,0.21 -0.12,0.29 -0.07,0.07 -0.17,0.12 -0.29,0.12zm-0.08 -0.32c0.02,0.02 0.05,0.03 0.08,0.03 0.03,0 0.06,-0.01 0.08,-0.03 0.02,-0.02 0.03,-0.05 0.03,-0.08l0 -0.52c0,-0.03 -0.01,-0.06 -0.03,-0.08 -0.02,-0.02 -0.05,-0.03 -0.08,-0.03 -0.03,0 -0.06,0.01 -0.08,0.03 -0.02,0.02 -0.03,0.05 -0.03,0.08l0 0.52c0,0.03 0.01,0.06 0.04,0.08z"/>
   <path class="fil1" d="M31.94 35.5c-0.14,0 -0.26,-0.12 -0.26,-0.26l0 -0.53c0,-0.14 0.12,-0.26 0.26,-0.26 0.14,0 0.26,0.12 0.26,0.26l0 0.53c0,0.14 -0.12,0.26 -0.26,0.26z"/>
   <path class="fil1" d="M31.94 35.64c-0.11,0 -0.21,-0.05 -0.29,-0.12 -0.07,-0.07 -0.12,-0.17 -0.12,-0.29l0 -0.52c0,-0.11 0.05,-0.21 0.12,-0.29 0.07,-0.07 0.18,-0.12 0.29,-0.12 0.11,0 0.21,0.05 0.29,0.12 0.07,0.07 0.12,0.18 0.12,0.29l0 0.52c0,0.11 -0.05,0.21 -0.12,0.29 -0.07,0.07 -0.18,0.12 -0.29,0.12zm-0.08 -0.32c0.02,0.02 0.05,0.04 0.08,0.04 0.03,0 0.06,-0.01 0.08,-0.03 0.02,-0.02 0.03,-0.05 0.03,-0.08l0 -0.52c0,-0.03 -0.01,-0.06 -0.03,-0.08 -0.02,-0.02 -0.05,-0.03 -0.08,-0.03 -0.03,0 -0.06,0.01 -0.08,0.04 -0.02,0.02 -0.04,0.05 -0.04,0.08l0 0.52c0,0.03 0.01,0.06 0.04,0.08z"/>
   <path class="fil1" d="M15.67 35.5c-0.14,0 -0.26,-0.12 -0.26,-0.26l0 -0.53c0,-0.14 0.12,-0.26 0.26,-0.26 0.14,0 0.26,0.12 0.26,0.26l0 0.53c0,0.14 -0.12,0.26 -0.26,0.26z"/>
   <path class="fil1" d="M15.67 35.64c-0.11,0 -0.21,-0.05 -0.29,-0.12 -0.07,-0.07 -0.12,-0.18 -0.12,-0.29l0 -0.52c0,-0.11 0.05,-0.21 0.12,-0.29 0.07,-0.07 0.17,-0.12 0.29,-0.12 0.11,0 0.21,0.05 0.29,0.12 0.07,0.07 0.12,0.18 0.12,0.29l0 0.52c0,0.11 -0.05,0.21 -0.12,0.29 -0.07,0.07 -0.18,0.12 -0.29,0.12zm-0.08 -0.32c0.02,0.02 0.05,0.03 0.08,0.03 0.03,0 0.06,-0.01 0.08,-0.03 0.02,-0.02 0.04,-0.05 0.04,-0.08l0 -0.52c0,-0.03 -0.01,-0.06 -0.03,-0.08 -0.02,-0.02 -0.05,-0.03 -0.08,-0.03 -0.03,0 -0.06,0.01 -0.08,0.03 -0.02,0.02 -0.03,0.05 -0.03,0.08l0 0.52c0,0.03 0.01,0.06 0.03,0.08z"/>
   <path class="fil1" d="M14.09 35.5c-0.14,0 -0.26,-0.12 -0.26,-0.26l0 -0.53c0,-0.14 0.12,-0.26 0.26,-0.26 0.14,0 0.26,0.12 0.26,0.26l0 0.53c0,0.14 -0.12,0.26 -0.26,0.26z"/>
   <path class="fil1" d="M14.09 35.64c-0.11,0 -0.21,-0.05 -0.29,-0.12 -0.07,-0.07 -0.12,-0.18 -0.12,-0.29l0 -0.52c0,-0.11 0.05,-0.21 0.12,-0.29 0.07,-0.07 0.18,-0.12 0.29,-0.12 0.11,0 0.21,0.05 0.29,0.12 0.07,0.07 0.12,0.18 0.12,0.29l0 0.52c0,0.11 -0.05,0.21 -0.12,0.29 -0.07,0.07 -0.18,0.12 -0.29,0.12zm-0.08 -0.32c0.02,0.02 0.05,0.03 0.08,0.03 0.03,0 0.06,-0.01 0.08,-0.03 0.02,-0.02 0.03,-0.05 0.03,-0.08l0 -0.52c0,-0.03 -0.01,-0.06 -0.03,-0.08 -0.02,-0.02 -0.05,-0.03 -0.08,-0.03 -0.03,0 -0.06,0.01 -0.08,0.03 -0.02,0.02 -0.03,0.05 -0.03,0.08l0 0.52c0,0.03 0.01,0.06 0.04,0.08z"/>
   <path class="fil1" d="M9.65 40.58c4.34,-2.03 8.74,-3.07 13.2,-3.08 4.45,-0.01 8.96,1 13.52,3.08l-0.35 0.76c-4.45,-2.03 -8.84,-3.01 -13.17,-3 -4.33,0.01 -8.62,1.02 -12.85,3l-0.35 -0.75z"/>
   <path class="fil1" d="M23.01 0c6.35,0 12.11,2.58 16.27,6.74 4.16,4.16 6.74,9.92 6.74,16.27l0 21.76c0,6.35 -2.58,12.11 -6.74,16.27 -4.16,4.16 -9.92,6.74 -16.27,6.74 -6.35,0 -12.11,-2.58 -16.27,-6.74 -4.16,-4.16 -6.74,-9.92 -6.74,-16.27l0 -21.76c0,-6.35 2.58,-12.11 6.74,-16.27 4.16,-4.16 9.92,-6.74 16.27,-6.74zm14.5 8.51c-3.71,-3.71 -8.84,-6.01 -14.5,-6.01 -5.66,0 -10.79,2.3 -14.5,6.01 -3.71,3.71 -6.01,8.84 -6.01,14.5l0 21.76c0,5.66 2.3,10.79 6.01,14.5 3.71,3.71 8.84,6.01 14.5,6.01 5.66,0 10.79,-2.3 14.5,-6.01 3.71,-3.71 6.01,-8.84 6.01,-14.5l0 -21.76c0,-5.66 -2.3,-10.79 -6.01,-14.5z"/>
   <path class="fil5" d="M35.46 41.08c-0.27,-0.12 -0.54,-0.23 -0.82,-0.34 -0.29,-0.12 -0.58,-0.23 -0.87,-0.34 -0.09,-0.03 -0.18,-0.07 -0.26,-0.1 -0.06,-0.02 -0.13,-0.05 -0.19,-0.07 -0.02,-0.01 -0.05,-0.02 -0.07,-0.02 -1.41,-0.51 -2.8,-0.91 -4.2,-1.21 -0.09,-0.02 -0.17,-0.04 -0.26,-0.06 -0.09,-0.02 -0.18,-0.04 -0.26,-0.05 -1.05,-0.21 -2.1,-0.36 -3.15,-0.45 -0.09,-0.01 -0.17,-0.01 -0.26,-0.02 -0.09,-0.01 -0.17,-0.01 -0.26,-0.02 -0.67,-0.05 -1.33,-0.07 -2,-0.06 -0.56,0 -1.12,0.02 -1.68,0.05 -0.09,0.01 -0.18,0.01 -0.26,0.02 -0.09,0.01 -0.18,0.01 -0.26,0.02 -1.05,0.09 -2.1,0.23 -3.15,0.43 -0.09,0.02 -0.17,0.03 -0.26,0.05 -0.09,0.02 -0.18,0.04 -0.26,0.05 -1.4,0.3 -2.8,0.7 -4.2,1.21 -0.04,0.02 -0.08,0.03 -0.13,0.05 -0.05,0.02 -0.09,0.03 -0.13,0.05 -0.09,0.03 -0.18,0.07 -0.26,0.1 -0.3,0.11 -0.59,0.23 -0.89,0.36 -0.27,0.11 -0.54,0.23 -0.81,0.35 -0.19,0.08 -0.37,0.17 -0.56,0.25l-0.35 -0.75c0.87,-0.4 1.73,-0.77 2.6,-1.09l0 -1.62 0 -3.13 -4.85 0 0 7.39c0,4.31 1.75,8.21 4.57,11.04 2.82,2.83 6.73,4.57 11.04,4.57 4.31,0 8.21,-1.75 11.04,-4.57 2.82,-2.82 4.57,-6.73 4.57,-11.04l0 -7.39 -4.85 0 0 3.13 0 1.64c0.87,0.32 1.73,0.68 2.6,1.07l-0.35 0.76c-0.19,-0.09 -0.38,-0.17 -0.57,-0.25z"/>
   <path class="fil1" d="M18.7 50.72l0 -0.84 -1.98 0 1.43 -1.66c0.09,-0.1 0.16,-0.2 0.23,-0.28 0.07,-0.09 0.13,-0.18 0.17,-0.27 0.05,-0.09 0.08,-0.19 0.1,-0.28 0.02,-0.1 0.04,-0.21 0.04,-0.33 0,-0.23 -0.04,-0.44 -0.12,-0.62 -0.08,-0.19 -0.19,-0.34 -0.32,-0.47 -0.14,-0.13 -0.3,-0.23 -0.5,-0.3 -0.19,-0.07 -0.4,-0.1 -0.63,-0.1 -0.22,0 -0.43,0.03 -0.62,0.1 -0.19,0.07 -0.36,0.17 -0.5,0.3 -0.14,0.13 -0.25,0.29 -0.33,0.47 -0.08,0.19 -0.12,0.39 -0.12,0.63l0.94 0c0,-0.12 0.02,-0.23 0.05,-0.31 0.04,-0.08 0.08,-0.15 0.14,-0.2 0.06,-0.05 0.13,-0.09 0.2,-0.11 0.07,-0.02 0.15,-0.03 0.23,-0.03 0.2,0 0.36,0.06 0.46,0.18 0.11,0.12 0.16,0.27 0.16,0.46 0,0.12 -0.02,0.23 -0.06,0.32 -0.04,0.09 -0.11,0.19 -0.21,0.3l-1.92 2.23 0 0.84 3.13 0z"/>
   <path id="_1_10" class="fil1" d="M22.58 49.23l0 -2.16c0,-0.24 -0.04,-0.46 -0.13,-0.65 -0.08,-0.19 -0.2,-0.35 -0.34,-0.48 -0.14,-0.13 -0.31,-0.23 -0.5,-0.3 -0.19,-0.07 -0.39,-0.1 -0.59,-0.1 -0.21,0 -0.41,0.03 -0.6,0.1 -0.19,0.07 -0.35,0.17 -0.5,0.3 -0.14,0.13 -0.26,0.29 -0.34,0.48 -0.08,0.19 -0.13,0.41 -0.13,0.65l0 2.16c0,0.24 0.04,0.46 0.13,0.65 0.08,0.19 0.2,0.35 0.34,0.48 0.14,0.13 0.31,0.23 0.5,0.3 0.19,0.07 0.39,0.1 0.6,0.1 0.21,0 0.4,-0.03 0.59,-0.1 0.19,-0.07 0.36,-0.17 0.5,-0.3 0.14,-0.13 0.25,-0.29 0.34,-0.48 0.08,-0.19 0.13,-0.41 0.13,-0.65zm-0.94 -0.01c0,0.22 -0.06,0.39 -0.17,0.51 -0.11,0.12 -0.26,0.18 -0.44,0.18 -0.18,0 -0.33,-0.06 -0.45,-0.18 -0.12,-0.12 -0.17,-0.29 -0.17,-0.51l0 -2.14c0,-0.22 0.06,-0.39 0.17,-0.51 0.12,-0.12 0.27,-0.19 0.45,-0.19 0.18,0 0.33,0.06 0.44,0.19 0.11,0.12 0.17,0.3 0.17,0.51l0 2.14z"/>
   <path id="_2" class="fil1" d="M26.52 50.72l0 -0.84 -1.98 0 1.43 -1.66c0.09,-0.1 0.16,-0.2 0.23,-0.28 0.07,-0.09 0.13,-0.18 0.17,-0.27 0.05,-0.09 0.08,-0.19 0.1,-0.28 0.02,-0.1 0.04,-0.21 0.04,-0.33 0,-0.23 -0.04,-0.44 -0.12,-0.62 -0.08,-0.19 -0.19,-0.34 -0.32,-0.47 -0.14,-0.13 -0.3,-0.23 -0.5,-0.3 -0.19,-0.07 -0.4,-0.1 -0.63,-0.1 -0.22,0 -0.43,0.03 -0.62,0.1 -0.19,0.07 -0.36,0.17 -0.5,0.3 -0.14,0.13 -0.25,0.29 -0.33,0.47 -0.08,0.19 -0.12,0.39 -0.12,0.63l0.94 0c0,-0.12 0.02,-0.23 0.05,-0.31 0.04,-0.08 0.08,-0.15 0.14,-0.2 0.06,-0.05 0.13,-0.09 0.2,-0.11 0.07,-0.02 0.15,-0.03 0.23,-0.03 0.2,0 0.36,0.06 0.46,0.18 0.11,0.12 0.16,0.27 0.16,0.46 0,0.12 -0.02,0.23 -0.06,0.32 -0.04,0.09 -0.11,0.19 -0.21,0.3l-1.92 2.23 0 0.84 3.13 0z"/>
   <path id="_3" class="fil1" d="M30.45 49.23c0,-0.31 -0.06,-0.56 -0.19,-0.75 -0.13,-0.19 -0.29,-0.33 -0.47,-0.42 0.17,-0.09 0.31,-0.22 0.42,-0.39 0.11,-0.17 0.17,-0.39 0.17,-0.67 0,-0.22 -0.04,-0.41 -0.12,-0.59 -0.08,-0.18 -0.19,-0.33 -0.33,-0.46 -0.14,-0.13 -0.31,-0.23 -0.5,-0.3 -0.19,-0.07 -0.4,-0.11 -0.63,-0.11 -0.22,0 -0.42,0.03 -0.61,0.1 -0.19,0.07 -0.35,0.16 -0.49,0.29 -0.14,0.12 -0.25,0.28 -0.33,0.46 -0.08,0.18 -0.13,0.39 -0.13,0.62l0.94 0c0.01,-0.2 0.07,-0.35 0.19,-0.46 0.12,-0.11 0.27,-0.16 0.44,-0.16 0.17,0 0.31,0.06 0.44,0.17 0.12,0.11 0.19,0.27 0.19,0.49 0,0.18 -0.05,0.33 -0.15,0.46 -0.1,0.12 -0.27,0.18 -0.5,0.18l-0.14 0 0 0.81 0.14 0c0.23,0 0.41,0.06 0.53,0.19 0.12,0.13 0.19,0.3 0.19,0.51 0,0.23 -0.06,0.41 -0.19,0.53 -0.13,0.12 -0.3,0.18 -0.5,0.18 -0.09,0 -0.18,-0.01 -0.26,-0.04 -0.08,-0.03 -0.16,-0.07 -0.22,-0.12 -0.06,-0.06 -0.11,-0.12 -0.15,-0.21 -0.04,-0.08 -0.06,-0.18 -0.06,-0.3l-0.94 0c0,0.27 0.05,0.5 0.14,0.69 0.09,0.19 0.21,0.35 0.36,0.47 0.15,0.12 0.32,0.21 0.52,0.27 0.19,0.06 0.4,0.09 0.61,0.09 0.22,0 0.43,-0.03 0.63,-0.09 0.2,-0.06 0.37,-0.16 0.52,-0.28 0.15,-0.13 0.27,-0.29 0.35,-0.48 0.09,-0.19 0.13,-0.42 0.13,-0.67z"/>
  </g>
 </g>
</svg>
