<?xml version="1.0" encoding="UTF-8" standalone="no"?><!DOCTYPE svg PUBLIC "-//W3C//DTD SVG 1.1//EN" "http://www.w3.org/Graphics/SVG/1.1/DTD/svg11.dtd"><svg width="100%" height="100%" viewBox="0 0 341 501" version="1.1" xmlns="http://www.w3.org/2000/svg" xmlns:xlink="http://www.w3.org/1999/xlink" xml:space="preserve" xmlns:serif="http://www.serif.com/" style="fill-rule:evenodd;clip-rule:evenodd;"><g id="_140375001272304"><path d="M168.085,137.693l-0,-19.375c-0,-1.107 0.881,-1.941 1.938,-1.941c1.071,-0 1.95,0.834 1.95,1.941l0,1.898l25.197,-0c1.066,-0 1.936,0.87 1.936,1.991l0,15.486c0,1.071 -0.87,1.94 -1.936,1.94l-25.197,-0l0,8.699l53.362,38.108c0.585,0.338 0.919,0.968 0.919,1.657l0,15.534c0,1.071 -0.87,1.941 -1.941,1.941l-9.717,0l-0,11.609l40.744,0c1.067,0 1.937,0.867 1.937,1.938l-0,15.486c-0,1.121 -0.87,1.941 -1.937,1.941l-5.831,0l0,13.882l42.051,-0l0,60.747c0,67.144 -54.428,121.523 -121.537,121.523c-67.096,-0 -121.524,-54.379 -121.524,-121.523l0,-60.747l42.048,-0l-0,-13.882l-5.828,0c-1.067,0 -1.937,-0.82 -1.937,-1.941l-0,-15.486c-0,-1.071 0.87,-1.938 1.937,-1.938l40.695,0l0,-11.609l-9.672,0c-1.068,0 -1.938,-0.87 -1.938,-1.941l0,-15.534c0,-0.584 0.286,-1.219 0.821,-1.555l53.46,-38.21l-0,-10.641l-0,0.002Zm162.754,32.344c-0,-88.81 -72.007,-160.816 -160.816,-160.816c-88.795,-0 -160.802,72.006 -160.802,160.816l-0,160.801c-0,88.806 72.007,160.812 160.802,160.812c88.809,0 160.816,-72.006 160.816,-160.812l-0,-160.801Z" style="fill:#eeefef;"/><path d="M297.726,250.429l-0,60.747c-0,35.296 -14.319,67.193 -37.439,90.31c-23.057,23.11 -55.013,37.39 -90.264,37.39c-35.238,-0 -67.194,-14.28 -90.25,-37.39c-23.122,-23.117 -37.441,-55.014 -37.441,-90.31l0,-66.908l255.393,-0l-0,6.162l0.001,-0.001Zm-12.332,60.747l0,-54.581l-230.729,-0l0,54.581c0,31.854 12.913,60.693 33.796,81.573c20.88,20.871 49.717,33.786 81.563,33.786c31.857,-0 60.694,-12.915 81.577,-33.786c20.881,-20.88 33.795,-49.718 33.795,-81.573l-0.002,-0Z" style="fill:#023047;"/><path d="M127.351,206.056l-0,93.072l27.134,0l-0,-38.743l31.037,0l-0,38.743l27.132,0l0,-93.072l-85.303,-0Z" style="fill:#eeefef;"/><path d="M127.351,206.056l-0,93.072l27.134,0l-0,-38.743l31.037,0l-0,38.743l27.132,0l0,-93.072l-85.303,-0Z" style="fill:none;stroke:#023047;stroke-width:2.11px;"/><rect x="177.79" y="221.594" width="15.489" height="15.485" style="fill:#eeefef;"/><path d="M178.859,236.06l13.364,0l-0,-13.399l-13.364,0l0,13.399Zm15.504,2.09l-17.627,-0l-0,-17.629l17.627,0l-0,17.629Z" style="fill:#023047;"/><rect x="146.768" y="221.594" width="15.489" height="15.485" style="fill:#eeefef;"/><path d="M147.836,236.06l13.36,0l-0,-13.399l-13.36,0l-0,13.399Zm15.489,2.09l-17.628,-0l-0,-17.629l17.628,0l-0,17.629Z" style="fill:#023047;"/><rect x="154.485" y="260.389" width="31.026" height="38.739" style="fill:#eeefef;"/><rect x="154.485" y="260.389" width="31.026" height="38.739" style="fill:none;stroke:#023047;stroke-width:2.11px;"/><rect x="212.654" y="279.763" width="34.917" height="19.379" style="fill:#eeefef;"/><rect x="212.654" y="279.763" width="34.917" height="19.379" style="fill:none;stroke:#023047;stroke-width:2.11px;"/><rect x="92.488" y="279.763" width="34.859" height="19.379" style="fill:#eeefef;"/><rect x="92.488" y="279.763" width="34.859" height="19.379" style="fill:none;stroke:#023047;stroke-width:2.11px;"/><rect x="212.654" y="237.082" width="34.917" height="42.681" style="fill:#eeefef;"/><path d="M213.725,278.692l32.828,-0l0,-40.542l-32.828,-0l0,40.542Zm34.914,2.139l-37.003,-0l0,-44.771l37.003,0l-0,44.771Z" style="fill:#023047;"/><rect x="92.488" y="237.082" width="34.859" height="42.681" style="fill:#eeefef;"/><path d="M93.506,278.692l32.827,-0l-0,-40.542l-32.827,-0l0,40.542Zm34.916,2.139l-37.005,-0l0,-44.771l37.005,0l0,44.771Z" style="fill:#023047;"/><rect x="212.654" y="221.594" width="42.687" height="15.485" style="fill:#eeefef;"/><path d="M256.408,220.523l-0,17.628l-44.771,-0l0,-17.628l44.771,-0Zm-2.138,2.138l-40.54,0l0,13.403l40.54,-0l0,-13.403Zm0,13.399l0,-13.399l0,13.399Z" style="fill:#023047;"/><rect x="84.719" y="221.594" width="42.628" height="15.485" style="fill:#eeefef;"/><path d="M128.422,220.523l0,17.628l-44.77,-0l-0,-17.628l44.77,-0Zm-2.089,2.138l-40.543,0l0,13.403l40.543,-0l-0,-13.403Zm-0,13.399l-0,-13.399l-0,13.399Z" style="fill:#023047;"/><rect x="115.742" y="190.566" width="108.561" height="15.489" style="fill:#eeefef;"/><path d="M225.384,189.499l0,17.628l-110.71,-0l0,-17.628l110.71,-0Zm-2.139,2.139l-106.436,-0l0,13.399l106.436,-0l0,-13.399Zm0,13.399l0,-13.399l0,13.399Z" style="fill:#023047;"/><path d="M224.313,190.57l-108.571,-0l54.281,-38.795l54.29,38.795Z" style="fill:#eeefef;"/><path d="M227.608,191.639l-115.16,-0l57.575,-41.128l57.585,41.128Zm-108.558,-2.139l101.958,-0l-50.985,-36.417l-50.973,36.417Z" style="fill:#023047;"/><rect x="170.023" y="124.63" width="27.148" height="15.535" style="fill:#e60013;"/><path d="M171.094,139.098l25.008,0l-0,-13.399l-25.008,0l-0,13.399Zm27.142,2.089l-29.271,0l-0,-17.628l29.271,0l0,17.628Z" style="fill:#023047;"/><path d="M212.654,223.531c-1.067,0 -1.888,-0.87 -1.888,-1.937l0,-15.538c0,-1.068 0.821,-1.938 1.888,-1.938c1.121,0 1.942,0.87 1.942,1.938l-0,15.538c-0,1.067 -0.821,1.937 -1.942,1.937Z" style="fill:#023047;"/><path d="M212.707,224.603c-0.82,-0 -1.606,-0.338 -2.138,-0.871c-0.536,-0.584 -0.87,-1.318 -0.87,-2.138l-0,-15.538c-0,-0.821 0.335,-1.555 0.87,-2.089c0.533,-0.534 1.318,-0.867 2.138,-0.867c0.782,0 1.552,0.335 2.086,0.867c0.536,0.535 0.87,1.268 0.87,2.089l0,15.538c0,0.82 -0.336,1.554 -0.87,2.138c-0.536,0.534 -1.304,0.871 -2.086,0.871Zm-0.633,-2.376c0.148,0.149 0.345,0.237 0.633,0.237c0.248,-0 0.434,-0.088 0.581,-0.237c0.201,-0.151 0.286,-0.387 0.286,-0.633l0,-15.538c0,-0.237 -0.085,-0.434 -0.286,-0.584c-0.148,-0.187 -0.335,-0.286 -0.581,-0.286c-0.289,-0 -0.487,0.099 -0.633,0.286c-0.187,0.151 -0.29,0.349 -0.29,0.584l0,15.538c0,0.247 0.103,0.483 0.29,0.633Z" style="fill:#023047;"/><path d="M170.023,140.166l27.148,-0l-0,-7.765c-4.81,0.88 -9.708,-1.554 -14.37,-0c-4.178,1.117 -8.502,-0 -12.778,-0l-0,7.765Z" style="fill:#eeefef;"/><path d="M127.351,223.531c-1.068,0 -1.937,-0.87 -1.937,-1.937l0,-15.538c0,-1.068 0.869,-1.938 1.937,-1.938c1.071,0 1.941,0.87 1.941,1.938l0,15.538c0,1.067 -0.87,1.937 -1.941,1.937Z" style="fill:#023047;"/><path d="M127.351,224.603c-0.831,-0 -1.554,-0.338 -2.086,-0.871c-0.535,-0.584 -0.869,-1.318 -0.869,-2.138l0,-15.538c0,-0.821 0.335,-1.555 0.869,-2.089c0.534,-0.534 1.255,-0.867 2.086,-0.867c0.82,0 1.604,0.335 2.139,0.867c0.536,0.535 0.87,1.268 0.87,2.089l-0,15.538c-0,0.82 -0.335,1.554 -0.87,2.138c-0.536,0.534 -1.319,0.871 -2.139,0.871Zm-0.634,-2.376c0.201,0.149 0.389,0.237 0.634,0.237c0.236,-0 0.487,-0.088 0.634,-0.237c0.138,-0.151 0.236,-0.387 0.236,-0.633l0,-15.538c0,-0.237 -0.098,-0.434 -0.236,-0.584c-0.148,-0.187 -0.399,-0.286 -0.634,-0.286c-0.246,-0 -0.434,0.099 -0.584,0.286c-0.198,0.151 -0.285,0.349 -0.285,0.584l-0,15.538c-0,0.247 0.087,0.483 0.235,0.633Z" style="fill:#023047;"/><path d="M247.571,301.08c-1.067,0 -1.937,-0.881 -1.937,-1.952l-0,-62.048c-0,-1.068 0.87,-1.938 1.937,-1.938c1.068,-0 1.938,0.87 1.938,1.938l0,62.048c0,1.071 -0.87,1.952 -1.938,1.952Z" style="fill:#023047;"/><path d="M247.571,301.08c-1.067,0 -1.937,-0.881 -1.937,-1.952l-0,-62.048c-0,-1.068 0.87,-1.938 1.937,-1.938c1.068,-0 1.938,0.87 1.938,1.938l0,62.048c0,1.071 -0.87,1.952 -1.938,1.952Z" style="fill:none;stroke:#023047;stroke-width:2.11px;"/><path d="M212.654,301.08c-1.067,0 -1.888,-0.881 -1.888,-1.952l0,-62.048c0,-1.068 0.821,-1.938 1.888,-1.938c1.121,-0 1.942,0.87 1.942,1.938l-0,62.048c-0,1.071 -0.821,1.952 -1.942,1.952Z" style="fill:#023047;"/><path d="M212.654,301.08c-1.067,0 -1.888,-0.881 -1.888,-1.952l0,-62.048c0,-1.068 0.821,-1.938 1.888,-1.938c1.121,-0 1.942,0.87 1.942,1.938l-0,62.048c-0,1.071 -0.821,1.952 -1.942,1.952Z" style="fill:none;stroke:#023047;stroke-width:2.11px;"/><path d="M214.597,235.141l38.802,-0l-0,-11.61l-38.802,0l-0,11.61Zm40.744,3.88l-42.686,-0c-1.067,-0 -1.888,-0.87 -1.888,-1.941l0,-15.486c0,-1.071 0.821,-1.937 1.888,-1.937l42.686,0c1.067,0 1.937,0.866 1.937,1.937l0,15.486c0,1.071 -0.87,1.941 -1.937,1.941Z" style="fill:#023047;"/><path d="M215.664,234.123l36.667,-0l0,-9.52l-36.667,-0l0,9.52Zm38.792,2.089l-40.882,-0l0,-13.748l40.882,-0l-0,13.748Zm0.884,3.876l-42.633,0c-0.82,0 -1.606,-0.335 -2.138,-0.87c-0.536,-0.533 -0.87,-1.304 -0.87,-2.138l-0,-15.486c-0,-0.821 0.335,-1.604 0.87,-2.138c0.533,-0.537 1.318,-0.87 2.138,-0.87l42.633,-0c0.821,-0 1.603,0.334 2.138,0.87c0.533,0.536 0.866,1.317 0.866,2.138l0,15.486c0,0.834 -0.334,1.606 -0.866,2.138c-0.536,0.536 -1.317,0.87 -2.138,0.87Zm-42.633,-2.138l42.633,-0c0.236,-0 0.483,-0.085 0.634,-0.237c0.137,-0.148 0.235,-0.384 0.235,-0.633l0,-15.486c0,-0.237 -0.098,-0.486 -0.235,-0.634c-0.153,-0.137 -0.4,-0.236 -0.634,-0.236l-42.633,-0c-0.289,-0 -0.487,0.099 -0.633,0.236c-0.187,0.149 -0.29,0.398 -0.29,0.634l0,15.486c0,0.25 0.103,0.487 0.29,0.633c0.148,0.152 0.345,0.237 0.633,0.237Z" style="fill:#023047;"/><path d="M127.351,301.08c-1.068,0 -1.937,-0.881 -1.937,-1.952l0,-62.048c0,-1.068 0.869,-1.938 1.937,-1.938c1.071,-0 1.941,0.87 1.941,1.938l0,62.048c0,1.071 -0.87,1.952 -1.941,1.952Z" style="fill:#023047;"/><path d="M127.351,301.08c-1.068,0 -1.937,-0.881 -1.937,-1.952l0,-62.048c0,-1.068 0.869,-1.938 1.937,-1.938c1.071,-0 1.941,0.87 1.941,1.938l0,62.048c0,1.071 -0.87,1.952 -1.941,1.952Z" style="fill:none;stroke:#023047;stroke-width:2.11px;"/><path d="M92.488,301.08c-1.071,0 -1.941,-0.881 -1.941,-1.952l-0,-62.048c-0,-1.068 0.87,-1.938 1.941,-1.938c1.067,-0 1.901,0.87 1.901,1.938l0,62.048c0,1.071 -0.834,1.952 -1.901,1.952Z" style="fill:#023047;"/><path d="M92.488,301.08c-1.071,0 -1.941,-0.881 -1.941,-1.952l-0,-62.048c-0,-1.068 0.87,-1.938 1.941,-1.938c1.067,-0 1.901,0.87 1.901,1.938l0,62.048c0,1.071 -0.834,1.952 -1.901,1.952Z" style="fill:none;stroke:#023047;stroke-width:2.11px;"/><path d="M86.657,235.141l38.757,-0l0,-11.61l-38.757,0l0,11.61Zm40.694,3.88l-42.632,-0c-1.067,-0 -1.937,-0.87 -1.937,-1.941l-0,-15.486c-0,-1.071 0.87,-1.937 1.937,-1.937l42.632,0c1.071,0 1.941,0.866 1.941,1.937l0,15.486c0,1.071 -0.87,1.941 -1.941,1.941Z" style="fill:#023047;"/><path d="M87.727,234.123l36.668,-0l0,-9.52l-36.668,-0l0,9.52Zm38.754,2.089l-40.882,-0l-0,-13.748l40.882,-0l-0,13.748Zm0.869,3.876l-42.632,0c-0.82,0 -1.604,-0.335 -2.139,-0.87c-0.535,-0.533 -0.87,-1.304 -0.87,-2.138l0,-15.486c0,-0.821 0.336,-1.604 0.87,-2.138c0.536,-0.537 1.319,-0.87 2.139,-0.87l42.632,-0c0.82,-0 1.604,0.334 2.139,0.87c0.536,0.536 0.87,1.317 0.87,2.138l-0,15.486c-0,0.834 -0.335,1.606 -0.87,2.138c-0.536,0.536 -1.319,0.87 -2.139,0.87Zm-42.632,-2.138l42.632,-0c0.236,-0 0.487,-0.085 0.633,-0.237c0.139,-0.148 0.237,-0.384 0.237,-0.633l-0,-15.486c-0,-0.237 -0.098,-0.486 -0.237,-0.634c-0.147,-0.137 -0.398,-0.236 -0.633,-0.236l-42.632,-0c-0.236,-0 -0.487,0.099 -0.634,0.236c-0.137,0.149 -0.236,0.398 -0.236,0.634l-0,15.486c-0,0.25 0.099,0.487 0.236,0.633c0.148,0.152 0.399,0.237 0.634,0.237Z" style="fill:#023047;"/><path d="M255.341,301.08l-69.819,0c-1.067,0 -1.898,-0.881 -1.898,-1.952c-0,-1.066 0.831,-1.936 1.898,-1.936l69.819,-0c1.067,-0 1.937,0.87 1.937,1.936c0,1.071 -0.87,1.952 -1.937,1.952Z" style="fill:#023047;"/><path d="M255.341,301.08l-69.819,0c-1.067,0 -1.898,-0.881 -1.898,-1.952c-0,-1.066 0.831,-1.936 1.898,-1.936l69.819,-0c1.067,-0 1.937,0.87 1.937,1.936c0,1.071 -0.87,1.952 -1.937,1.952Z" style="fill:none;stroke:#023047;stroke-width:2.11px;"/><path d="M154.485,301.08l-69.766,0c-1.067,0 -1.937,-0.881 -1.937,-1.952c-0,-1.066 0.87,-1.936 1.937,-1.936l69.766,-0c1.121,-0 1.952,0.87 1.952,1.936c-0,1.071 -0.831,1.952 -1.952,1.952Z" style="fill:#023047;"/><path d="M154.485,301.08l-69.766,0c-1.067,0 -1.937,-0.881 -1.937,-1.952c-0,-1.066 0.87,-1.936 1.937,-1.936l69.766,-0c1.121,-0 1.952,0.87 1.952,1.936c-0,1.071 -0.831,1.952 -1.952,1.952Z" style="fill:none;stroke:#023047;stroke-width:2.11px;"/><path d="M156.437,297.19l27.183,0l0,-34.867l-27.183,-0l-0,34.867Zm29.085,3.89l-31.037,0c-1.054,0 -1.888,-0.881 -1.888,-1.952l-0,-38.743c-0,-1.116 0.834,-1.936 1.888,-1.936l31.037,-0c1.071,-0 1.941,0.82 1.941,1.936l-0,38.743c-0,1.071 -0.87,1.952 -1.941,1.952Z" style="fill:#023047;"/><path d="M156.437,297.19l27.183,0l0,-34.867l-27.183,-0l-0,34.867Zm29.085,3.89l-31.037,0c-1.054,0 -1.888,-0.881 -1.888,-1.952l-0,-38.743c-0,-1.116 0.834,-1.936 1.888,-1.936l31.037,-0c1.071,-0 1.941,0.82 1.941,1.936l-0,38.743c-0,1.071 -0.87,1.952 -1.941,1.952Z" style="fill:none;stroke:#023047;stroke-width:2.11px;"/><path d="M247.571,281.702l-34.917,0c-1.067,0 -1.888,-0.87 -1.888,-1.938c0,-1.071 0.821,-1.95 1.888,-1.95l34.917,-0c1.068,-0 1.938,0.879 1.938,1.95c0,1.068 -0.87,1.938 -1.938,1.938Z" style="fill:#023047;"/><path d="M247.571,282.773l-34.864,0c-0.82,0 -1.606,-0.338 -2.138,-0.87c-0.536,-0.584 -0.87,-1.318 -0.87,-2.139c-0,-0.831 0.335,-1.603 0.87,-2.137c0.533,-0.537 1.318,-0.87 2.138,-0.87l34.864,-0c0.821,-0 1.604,0.334 2.139,0.87c0.532,0.535 0.869,1.306 0.869,2.137c0,0.821 -0.338,1.555 -0.869,2.139c-0.537,0.533 -1.318,0.87 -2.139,0.87Zm-34.864,-2.139l34.864,0c0.237,0 0.484,-0.098 0.634,-0.236c0.137,-0.151 0.285,-0.398 0.285,-0.634c-0,-0.249 -0.148,-0.486 -0.285,-0.633c-0.151,-0.148 -0.398,-0.25 -0.634,-0.25l-34.864,0c-0.289,0 -0.487,0.102 -0.633,0.25c-0.187,0.149 -0.29,0.385 -0.29,0.633c0,0.237 0.103,0.484 0.29,0.634c0.148,0.138 0.345,0.236 0.633,0.236Z" style="fill:#023047;"/><path d="M127.351,281.702l-34.863,0c-1.071,0 -1.941,-0.87 -1.941,-1.938c-0,-1.071 0.87,-1.95 1.941,-1.95l34.863,-0c1.071,-0 1.941,0.879 1.941,1.95c0,1.068 -0.87,1.938 -1.941,1.938Z" style="fill:#023047;"/><path d="M127.351,282.773l-34.863,0c-0.821,0 -1.604,-0.338 -2.139,-0.87c-0.536,-0.584 -0.87,-1.318 -0.87,-2.139c0,-0.831 0.335,-1.603 0.87,-2.137c0.536,-0.537 1.318,-0.87 2.139,-0.87l34.863,-0c0.82,-0 1.604,0.334 2.139,0.87c0.536,0.535 0.87,1.306 0.87,2.137c-0,0.821 -0.335,1.555 -0.87,2.139c-0.536,0.533 -1.319,0.87 -2.139,0.87Zm-34.863,-2.139l34.863,0c0.236,0 0.487,-0.098 0.634,-0.236c0.138,-0.151 0.236,-0.398 0.236,-0.634c0,-0.249 -0.098,-0.486 -0.236,-0.633c-0.148,-0.148 -0.399,-0.25 -0.634,-0.25l-34.863,0c-0.286,0 -0.487,0.102 -0.633,0.25c-0.188,0.149 -0.287,0.385 -0.287,0.633c0,0.237 0.099,0.484 0.287,0.634c0.147,0.138 0.398,0.236 0.633,0.236Z" style="fill:#023047;"/><path d="M224.313,207.994l-108.571,-0c-1.068,-0 -1.938,-0.867 -1.938,-1.938l0,-15.486c0,-1.071 0.87,-1.941 1.938,-1.941c1.071,-0 1.952,0.87 1.952,1.941l-0,13.547l104.672,-0l-0,-13.547c-0,-1.071 0.879,-1.941 1.947,-1.941c1.071,-0 1.941,0.87 1.941,1.941l0,15.486c0,1.071 -0.87,1.938 -1.941,1.938Z" style="fill:#023047;"/><path d="M224.313,209.064l-108.571,-0c-0.821,-0 -1.603,-0.335 -2.135,-0.869c-0.536,-0.537 -0.871,-1.319 -0.871,-2.139l0,-15.486c0,-0.821 0.336,-1.554 0.871,-2.139c0.533,-0.535 1.314,-0.869 2.135,-0.869c0.835,0 1.555,0.335 2.089,0.869c0.584,0.533 0.881,1.318 0.881,2.139l-0,12.529l102.581,-0l0,-12.529c0,-0.821 0.349,-1.607 0.885,-2.139c0.58,-0.535 1.303,-0.869 2.134,-0.869c0.82,0 1.608,0.335 2.139,0.869c0.536,0.533 0.87,1.318 0.87,2.139l-0,15.486c-0,0.82 -0.335,1.603 -0.87,2.139c-0.532,0.535 -1.319,0.869 -2.139,0.869l0.001,-0Zm-108.571,-2.09l108.571,0c0.236,0 0.487,-0.098 0.623,-0.284c0.149,-0.148 0.247,-0.385 0.247,-0.634l0,-15.486c0,-0.251 -0.098,-0.487 -0.247,-0.634c-0.137,-0.151 -0.388,-0.236 -0.623,-0.236c-0.246,-0 -0.482,0.085 -0.63,0.236c-0.152,0.148 -0.25,0.385 -0.25,0.634l0,14.614l-106.807,0l0,-14.614c0,-0.251 -0.099,-0.487 -0.25,-0.634c-0.198,-0.151 -0.385,-0.236 -0.634,-0.236c-0.237,-0 -0.484,0.085 -0.62,0.236c-0.147,0.148 -0.25,0.385 -0.25,0.634l-0,15.486c-0,0.25 0.103,0.487 0.25,0.634c0.137,0.186 0.385,0.284 0.62,0.284Z" style="fill:#023047;"/><path d="M121.77,188.629l96.467,-0l-48.213,-34.479l-48.252,34.479l-0.002,-0Zm102.543,3.88l-108.571,-0c-0.87,-0 -1.603,-0.537 -1.839,-1.357c-0.296,-0.782 0.05,-1.653 0.722,-2.188l54.291,-38.743c0.673,-0.483 1.555,-0.483 2.226,0l54.193,38.694c0.585,0.338 0.919,0.972 0.919,1.656c0,1.068 -0.87,1.938 -1.941,1.938Z" style="fill:#023047;"/><path d="M125.064,187.562l89.93,0l-44.971,-32.095l-44.959,32.095Zm96.482,2.138l-103.03,-0l51.508,-36.804l51.522,36.804Zm2.768,3.877l-108.571,-0c-0.669,-0 -1.254,-0.237 -1.789,-0.586c-0.483,-0.384 -0.881,-0.865 -1.067,-1.5c-0.201,-0.634 -0.201,-1.258 -0,-1.842c0.186,-0.63 0.584,-1.117 1.116,-1.502l54.281,-38.796c0.536,-0.395 1.12,-0.533 1.74,-0.533c0.584,0 1.219,0.138 1.753,0.533l54.178,38.694c0.4,0.236 0.733,0.633 0.984,1.071c0.236,0.434 0.384,0.92 0.384,1.455c0,0.817 -0.334,1.555 -0.87,2.135c-0.532,0.536 -1.318,0.871 -2.139,0.871Zm-108.571,-2.139l108.571,-0c0.237,-0 0.487,-0.1 0.623,-0.237c0.149,-0.147 0.247,-0.395 0.247,-0.63c0,-0.151 0,-0.338 -0.098,-0.437c-0.049,-0.148 -0.187,-0.247 -0.286,-0.349l-54.242,-38.743c-0.187,-0.099 -0.334,-0.138 -0.535,-0.138c-0.187,-0 -0.385,0.039 -0.523,0.138l-54.29,38.793c-0.139,0.101 -0.237,0.299 -0.29,0.446c-0.099,0.188 -0.099,0.389 -0.05,0.527c0.103,0.197 0.201,0.345 0.34,0.497c0.148,0.084 0.345,0.134 0.532,0.134l0.001,-0.001Z" style="fill:#023047;"/><path d="M148.721,235.141l11.591,-0l0,-11.61l-11.591,0l0,11.61Zm13.533,3.88l-15.486,-0c-1.071,-0 -1.94,-0.87 -1.94,-1.941l-0,-15.486c-0,-1.071 0.869,-1.937 1.94,-1.937l15.486,0c1.071,0 1.952,0.866 1.952,1.937l-0,15.486c-0,1.071 -0.881,1.941 -1.952,1.941Z" style="fill:#023047;"/><path d="M149.739,234.123l9.506,-0l-0,-9.52l-9.506,-0l0,9.52Zm11.645,2.089l-13.734,-0l-0,-13.748l13.734,-0l-0,13.748Zm0.87,3.876l-15.486,0c-0.821,0 -1.603,-0.335 -2.128,-0.87c-0.532,-0.533 -0.88,-1.304 -0.88,-2.138l0,-15.486c0,-0.821 0.349,-1.604 0.88,-2.138c0.526,-0.537 1.307,-0.87 2.128,-0.87l15.486,-0c0.834,-0 1.603,0.334 2.139,0.87c0.535,0.536 0.88,1.317 0.88,2.138l0,15.486c0,0.834 -0.346,1.606 -0.88,2.138c-0.537,0.536 -1.305,0.87 -2.139,0.87Zm-15.486,-2.138l15.486,-0c0.25,-0 0.498,-0.085 0.633,-0.237c0.152,-0.148 0.251,-0.384 0.251,-0.633l0,-15.486c0,-0.237 -0.099,-0.486 -0.251,-0.634c-0.137,-0.137 -0.384,-0.236 -0.633,-0.236l-15.486,-0c-0.237,-0 -0.486,0.099 -0.623,0.236c-0.148,0.149 -0.247,0.398 -0.247,0.634l-0,15.486c-0,0.25 0.099,0.487 0.247,0.633c0.138,0.152 0.388,0.237 0.623,0.237Z" style="fill:#023047;"/><path d="M179.744,235.141l11.594,-0l0,-11.61l-11.594,0l-0,11.61Zm13.546,3.88l-15.5,-0c-1.055,-0 -1.936,-0.87 -1.936,-1.941l-0,-15.486c-0,-1.071 0.881,-1.937 1.936,-1.937l15.5,0c1.072,0 1.938,0.866 1.938,1.937l0,15.486c0,1.071 -0.866,1.941 -1.938,1.941Z" style="fill:#023047;"/><path d="M180.762,234.123l9.506,-0l0,-9.52l-9.506,-0l-0,9.52Zm11.648,2.089l-13.738,-0l0,-13.748l13.738,-0l-0,13.748Zm0.88,3.876l-15.5,0c-0.82,0 -1.592,-0.335 -2.123,-0.87c-0.537,-0.533 -0.884,-1.304 -0.884,-2.138l-0,-15.486c-0,-0.821 0.348,-1.604 0.884,-2.138c0.532,-0.537 1.303,-0.87 2.123,-0.87l15.5,-0c0.821,-0 1.594,0.334 2.125,0.87c0.536,0.536 0.884,1.317 0.884,2.138l0,15.486c0,0.834 -0.35,1.606 -0.884,2.138c-0.532,0.536 -1.304,0.87 -2.125,0.87Zm-15.5,-2.138l15.5,-0c0.237,-0 0.488,-0.085 0.624,-0.237c0.147,-0.148 0.247,-0.384 0.247,-0.633l-0,-15.486c-0,-0.237 -0.1,-0.486 -0.247,-0.634c-0.138,-0.137 -0.388,-0.236 -0.624,-0.236l-15.5,-0c-0.235,-0 -0.485,0.099 -0.619,0.236c-0.151,0.149 -0.299,0.398 -0.299,0.634l-0,15.486c-0,0.25 0.148,0.487 0.299,0.633c0.135,0.152 0.385,0.237 0.619,0.237Z" style="fill:#023047;"/><path d="M170.023,126.584c-1.057,-0 -1.938,-0.885 -1.938,-1.952l-0,-3.88c-0,-1.067 0.881,-1.937 1.938,-1.937c1.071,-0 1.95,0.87 1.95,1.937l0,3.88c0,1.067 -0.879,1.952 -1.95,1.952Z" style="fill:#023047;"/><path d="M170.023,127.637c-0.821,0 -1.591,-0.335 -2.125,-0.87c-0.537,-0.532 -0.884,-1.304 -0.884,-2.135l-0,-3.88c-0,-0.831 0.348,-1.554 0.884,-2.089c0.536,-0.533 1.304,-0.881 2.125,-0.881c0.831,0 1.553,0.349 2.137,0.881c0.537,0.536 0.881,1.258 0.881,2.089l0,3.88c0,0.831 -0.345,1.604 -0.881,2.135c-0.584,0.537 -1.306,0.87 -2.137,0.87Zm-0.62,-2.372c0.137,0.149 0.384,0.247 0.62,0.247c0.25,0 0.496,-0.098 0.633,-0.247c0.148,-0.151 0.25,-0.387 0.25,-0.633l-0,-3.88c-0,-0.25 -0.102,-0.433 -0.25,-0.633c-0.138,-0.148 -0.384,-0.247 -0.633,-0.247c-0.237,-0 -0.484,0.099 -0.62,0.247c-0.152,0.201 -0.25,0.384 -0.25,0.633l-0,3.88c-0,0.247 0.098,0.483 0.25,0.633Z" style="fill:#023047;"/><path d="M170.023,153.716c-1.057,0 -1.938,-0.87 -1.938,-1.941l-0,-11.609c-0,-1.068 0.881,-1.938 1.938,-1.938c1.071,0 1.95,0.87 1.95,1.938l0,11.609c0,1.071 -0.879,1.941 -1.95,1.941Z" style="fill:#023047;"/><path d="M170.023,154.784c-0.821,-0 -1.591,-0.336 -2.125,-0.87c-0.537,-0.537 -0.884,-1.319 -0.884,-2.139l-0,-11.609c-0,-0.817 0.348,-1.603 0.884,-2.135c0.536,-0.536 1.304,-0.871 2.125,-0.871c0.831,0 1.553,0.336 2.137,0.871c0.537,0.533 0.881,1.318 0.881,2.135l0,11.609c0,0.82 -0.345,1.603 -0.881,2.139c-0.584,0.535 -1.306,0.87 -2.137,0.87Zm-0.62,-2.375c0.137,0.137 0.384,0.236 0.62,0.236c0.25,0 0.496,-0.099 0.633,-0.236c0.148,-0.148 0.25,-0.399 0.25,-0.634l-0,-11.609c-0,-0.237 -0.102,-0.484 -0.25,-0.634c-0.138,-0.133 -0.384,-0.236 -0.633,-0.236c-0.237,-0 -0.484,0.103 -0.62,0.236c-0.152,0.152 -0.25,0.399 -0.25,0.634l-0,11.609c-0,0.236 0.098,0.487 0.25,0.634Z" style="fill:#023047;"/><path d="M171.975,138.228l23.251,0l-0,-11.648l-23.251,0l-0,11.648Zm25.196,3.89l-27.148,-0c-1.057,-0 -1.938,-0.88 -1.938,-1.951l-0,-15.535c-0,-1.072 0.881,-1.941 1.938,-1.941l27.148,0c1.066,0 1.936,0.869 1.936,1.941l0,15.535c0,1.071 -0.87,1.951 -1.936,1.951Z" style="fill:#023047;"/><path d="M173.042,137.16l21.116,0l0,-9.523l-21.116,0l0,9.523Zm23.259,2.136l-25.394,-0l0,-13.784l25.394,0l-0,13.784Zm0.87,3.845l-27.148,-0c-0.821,-0 -1.591,-0.35 -2.125,-0.885c-0.537,-0.537 -0.884,-1.254 -0.884,-2.089l-0,-15.535c-0,-0.821 0.348,-1.554 0.884,-2.09c0.536,-0.584 1.304,-0.918 2.125,-0.918l27.148,-0c0.82,-0 1.603,0.334 2.137,0.918c0.534,0.537 0.867,1.269 0.867,2.09l0,15.535c0,0.835 -0.335,1.554 -0.867,2.089c-0.535,0.536 -1.317,0.885 -2.137,0.885Zm-27.148,-2.09l27.148,0c0.246,0 0.482,-0.099 0.632,-0.25c0.149,-0.198 0.237,-0.384 0.237,-0.634l-0,-15.535c-0,-0.237 -0.088,-0.438 -0.237,-0.634c-0.151,-0.137 -0.387,-0.237 -0.632,-0.237l-27.148,0c-0.237,0 -0.484,0.1 -0.62,0.237c-0.152,0.197 -0.25,0.398 -0.25,0.634l-0,15.535c-0,0.251 0.098,0.438 0.25,0.634c0.137,0.151 0.384,0.25 0.62,0.25Z" style="fill:#023047;"/><path d="M224.313,262.324c-1.068,0 -1.947,-0.87 -1.947,-1.938l-0,-3.879c-0,-1.067 0.879,-1.948 1.947,-1.948c1.071,-0 1.941,0.881 1.941,1.948l0,3.879c0,1.068 -0.87,1.938 -1.941,1.938Z" style="fill:#023047;"/><path d="M224.313,263.346c-0.831,-0 -1.554,-0.339 -2.086,-0.871c-0.584,-0.535 -0.932,-1.258 -0.932,-2.089l-0,-3.879c-0,-0.831 0.348,-1.603 0.884,-2.135c0.58,-0.536 1.303,-0.884 2.134,-0.884c0.821,-0 1.608,0.35 2.139,0.884c0.537,0.533 0.87,1.304 0.87,2.135l-0,3.879c-0,0.831 -0.335,1.555 -0.87,2.089c-0.532,0.534 -1.318,0.871 -2.139,0.871Zm-0.63,-2.376c0.197,0.199 0.385,0.287 0.63,0.287c0.236,-0 0.487,-0.088 0.623,-0.287c0.149,-0.147 0.247,-0.334 0.247,-0.584l0,-3.879c0,-0.247 -0.098,-0.483 -0.247,-0.634c-0.137,-0.147 -0.388,-0.247 -0.623,-0.247c-0.246,0 -0.482,0.1 -0.63,0.247c-0.152,0.152 -0.25,0.388 -0.25,0.634l0,3.879c0,0.251 0.098,0.438 0.25,0.584Z" style="fill:#023047;"/><path d="M235.962,262.324c-1.067,0 -1.938,-0.87 -1.938,-1.938l0,-3.879c0,-1.067 0.871,-1.948 1.938,-1.948c1.067,-0 1.937,0.881 1.937,1.948l-0,3.879c-0,1.068 -0.87,1.938 -1.937,1.938Z" style="fill:#023047;"/><path d="M235.962,263.346c-0.821,-0 -1.604,-0.339 -2.139,-0.871c-0.533,-0.535 -0.87,-1.258 -0.87,-2.089l0,-3.879c0,-0.831 0.338,-1.603 0.87,-2.135c0.536,-0.536 1.318,-0.884 2.139,-0.884c0.831,-0 1.554,0.35 2.088,0.884c0.533,0.533 0.87,1.304 0.87,2.135l0,3.879c0,0.831 -0.338,1.555 -0.87,2.089c-0.535,0.534 -1.257,0.871 -2.088,0.871Zm-0.633,-2.376c0.147,0.199 0.398,0.287 0.633,0.287c0.25,-0 0.433,-0.088 0.633,-0.287c0.149,-0.147 0.236,-0.334 0.236,-0.584l0,-3.879c0,-0.247 -0.087,-0.483 -0.236,-0.634c-0.201,-0.147 -0.384,-0.247 -0.633,-0.247c-0.236,0 -0.487,0.1 -0.633,0.247c-0.139,0.152 -0.237,0.388 -0.237,0.634l0,3.879c0,0.251 0.098,0.438 0.237,0.584Z" style="fill:#023047;"/><path d="M115.742,262.324c-1.068,0 -1.938,-0.87 -1.938,-1.938l0,-3.879c0,-1.067 0.87,-1.948 1.938,-1.948c1.071,-0 1.952,0.881 1.952,1.948l-0,3.879c-0,1.068 -0.881,1.938 -1.952,1.938Z" style="fill:#023047;"/><path d="M115.742,263.346c-0.821,-0 -1.603,-0.339 -2.135,-0.871c-0.536,-0.535 -0.871,-1.258 -0.871,-2.089l0,-3.879c0,-0.831 0.336,-1.603 0.871,-2.135c0.533,-0.536 1.314,-0.884 2.135,-0.884c0.835,-0 1.555,0.35 2.089,0.884c0.584,0.533 0.881,1.304 0.881,2.135l-0,3.879c-0,0.831 -0.297,1.555 -0.881,2.089c-0.536,0.534 -1.254,0.871 -2.089,0.871Zm-0.62,-2.376c0.137,0.199 0.385,0.287 0.62,0.287c0.25,-0 0.437,-0.088 0.634,-0.287c0.151,-0.147 0.25,-0.334 0.25,-0.584l0,-3.879c0,-0.247 -0.099,-0.483 -0.25,-0.634c-0.198,-0.147 -0.385,-0.247 -0.634,-0.247c-0.237,0 -0.484,0.1 -0.62,0.247c-0.147,0.152 -0.25,0.388 -0.25,0.634l-0,3.879c-0,0.251 0.103,0.438 0.25,0.584Z" style="fill:#023047;"/><path d="M104.097,262.324c-1.071,0 -1.941,-0.87 -1.941,-1.938l-0,-3.879c-0,-1.067 0.87,-1.948 1.941,-1.948c1.068,-0 1.938,0.881 1.938,1.948l0,3.879c0,1.068 -0.87,1.938 -1.938,1.938Z" style="fill:#023047;"/><path d="M104.097,263.346c-0.834,-0 -1.554,-0.339 -2.089,-0.871c-0.584,-0.535 -0.92,-1.306 -0.92,-2.089l0,-3.879c0,-0.831 0.336,-1.603 0.871,-2.135c0.584,-0.536 1.304,-0.884 2.138,-0.884c0.821,-0 1.604,0.35 2.139,0.884c0.532,0.533 0.869,1.304 0.869,2.135l0,3.879c0,0.831 -0.338,1.555 -0.869,2.089c-0.585,0.534 -1.318,0.871 -2.139,0.871Zm-0.633,-2.376c0.197,0.199 0.384,0.287 0.633,0.287c0.237,-0 0.484,-0.088 0.634,-0.287c0.137,-0.147 0.236,-0.334 0.236,-0.584l0,-3.879c0,-0.247 -0.099,-0.483 -0.236,-0.634c-0.151,-0.147 -0.398,-0.247 -0.634,-0.247c-0.25,0 -0.487,0.1 -0.633,0.247c-0.148,0.152 -0.251,0.388 -0.251,0.634l-0,3.879c-0,0.251 0.103,0.438 0.251,0.584Z" style="fill:#023047;"/><path d="M71.319,299.811c32.094,-14.952 64.572,-22.618 97.499,-22.721c32.912,-0.098 66.224,7.386 99.921,22.721l-2.575,5.581c-32.874,-14.953 -65.302,-22.236 -97.346,-22.186c-31.996,0.098 -63.653,7.568 -94.926,22.186l-2.573,-5.581Z" style="fill:#023047;"/><path d="M170.023,0c46.959,0 89.493,19.03 120.219,49.816c30.787,30.777 49.816,73.262 49.816,120.221l0,160.801c0,46.944 -19.029,89.479 -49.816,120.216c-30.726,30.787 -73.26,49.82 -120.219,49.82c-46.945,0 -89.48,-19.033 -120.207,-49.82c-30.786,-30.737 -49.816,-73.272 -49.816,-120.216l0,-160.801c0,-46.959 19.03,-89.444 49.816,-120.221c30.727,-30.786 73.262,-49.816 120.207,-49.816Zm107.169,62.881c-27.433,-27.446 -65.306,-44.387 -107.169,-44.387c-41.852,-0 -79.723,16.94 -107.155,44.387c-27.433,27.429 -44.423,65.292 -44.423,107.156l0,160.801c0,41.851 16.989,79.722 44.423,107.152c27.432,27.432 65.305,44.426 107.155,44.426c41.864,0 79.736,-16.993 107.169,-44.426c27.428,-27.43 44.373,-65.302 44.373,-107.152l-0,-160.801c-0,-41.866 -16.944,-79.727 -44.373,-107.156Z" style="fill:#023047;"/><path d="M261.99,303.505c-2.038,-0.87 -4.029,-1.702 -6.015,-2.523c-2.188,-0.884 -4.327,-1.706 -6.465,-2.523c-0.633,-0.251 -1.268,-0.487 -1.938,-0.733c-0.487,-0.151 -0.919,-0.338 -1.416,-0.536c-0.187,-0.049 -0.336,-0.099 -0.522,-0.151c-10.355,-3.729 -20.697,-6.747 -31.037,-8.922c-0.623,-0.151 -1.258,-0.299 -1.888,-0.448c-0.687,-0.087 -1.308,-0.235 -1.942,-0.388c-7.817,-1.503 -15.538,-2.621 -23.303,-3.293c-0.634,-0.05 -1.269,-0.099 -1.941,-0.148c-0.634,-0.05 -1.269,-0.1 -1.898,-0.148c-4.951,-0.339 -9.858,-0.487 -14.805,-0.487c-4.126,0.049 -8.256,0.148 -12.381,0.437c-0.634,0 -1.268,0.05 -1.952,0.098c-0.619,0.05 -1.254,0.1 -1.888,0.149c-7.817,0.634 -15.538,1.691 -23.303,3.206c-0.634,0.138 -1.258,0.286 -1.942,0.387c-0.633,0.149 -1.268,0.287 -1.936,0.434c-10.342,2.189 -20.682,5.198 -31.024,8.939c-0.299,0.134 -0.584,0.236 -0.933,0.335c-0.334,0.148 -0.669,0.247 -0.968,0.385c-0.673,0.25 -1.308,0.487 -1.941,0.731c-2.185,0.821 -4.373,1.755 -6.55,2.626c-2.001,0.821 -3.989,1.703 -5.979,2.573c-1.354,0.633 -2.77,1.253 -4.125,1.887l-2.573,-5.581c6.364,-2.955 12.765,-5.679 19.227,-8.053l-0,-35.165l-35.882,0l-0,54.582c-0,31.853 12.913,60.693 33.796,81.573c20.88,20.871 49.717,33.785 81.563,33.785c31.857,0 60.693,-12.914 81.576,-33.785c20.882,-20.88 33.795,-49.718 33.795,-81.573l0,-54.582l-35.884,0l0,35.302c6.415,2.386 12.814,5.01 19.229,7.916l-2.575,5.581c-1.403,-0.634 -2.77,-1.254 -4.175,-1.887l-0.005,0Z" style="fill:#219ebc;"/></g><g transform="matrix(50,0,0,50,232.96,352.421)"></g><text x="107.66px" y="352.421px" style="font-family:'PlusJakartaSans-ExtraBold', 'Plus Jakarta Sans';font-weight:800;font-size:50px;fill:#023047;">2025</text></svg>