<?xml version="1.0" encoding="UTF-8"?>
<!DOCTYPE svg PUBLIC "-//W3C//DTD SVG 1.1//EN" "http://www.w3.org/Graphics/SVG/1.1/DTD/svg11.dtd">
<!-- Creator: CorelDRAW -->
<svg xmlns="http://www.w3.org/2000/svg" xml:space="preserve" width="33.2508mm" height="8.7725mm" version="1.1" style="shape-rendering:geometricPrecision; text-rendering:geometricPrecision; image-rendering:optimizeQuality; fill-rule:evenodd; clip-rule:evenodd"
viewBox="0 0 630.7 166.4"
 xmlns:xlink="http://www.w3.org/1999/xlink"
 xmlns:xodm="http://www.corel.com/coreldraw/odm/2003">
 <defs>
  <style type="text/css">
   <![CDATA[
    .fil2 {fill:#B62F33;fill-rule:nonzero}
    .fil0 {fill:#023047;fill-rule:nonzero}
    .fil1 {fill:#219EBC;fill-rule:nonzero}
   ]]>
  </style>
 </defs>
 <g id="Layer_x0020_1">
  <metadata id="CorelCorpID_0Corel-Layer"/>
  <g id="_2922739090992">
   <path class="fil0" d="M-0 98.74l21.67 0 0 -30.17 13.99 0c21.12,0 35.38,-13.16 35.38,-33.46 0,-20.71 -14.26,-33.73 -35.38,-33.73l-35.66 0 0 97.37zm21.67 -50.05l0 -27.43 11.93 0c8.78,0 15.5,3.43 15.5,13.85 0,10.42 -6.72,13.58 -15.5,13.58l-11.93 0z"/>
   <path id="_1" class="fil0" d="M81.19 98.74l21.67 0 0 -30.17 13.99 0c21.12,0 35.38,-13.16 35.38,-33.46 0,-20.71 -14.26,-33.73 -35.38,-33.73l-35.66 0 0 97.37zm21.67 -50.05l0 -27.43 11.93 0c8.78,0 15.5,3.43 15.5,13.85 0,10.42 -6.72,13.58 -15.5,13.58l-11.93 0z"/>
   <path id="_2" class="fil0" d="M162.37 98.74l37.85 0c26.05,0 46.63,-20.16 46.63,-48.68 0,-28.52 -20.57,-48.68 -46.63,-48.68l-37.85 0 0 97.37zm21.67 -20.43l0 -56.5 15.36 0c16.46,0 24.96,11.66 24.96,28.25 0,16.59 -8.5,28.25 -24.96,28.25l-15.36 0z"/>
   <path id="_3" class="fil0" d="M256.99 98.74l36.07 0c22.08,0 33.87,-11.66 33.87,-29.07 0,-15.09 -9.33,-22.77 -18.38,-25.37 5.49,-2.6 12.07,-8.91 12.07,-19.34 0,-13.44 -10.83,-23.59 -26.88,-23.59l-36.75 0 0 97.37zm21.67 -18.92l0 -24.69 12.75 0c9.74,0 13.99,5.07 13.99,12.34 0,7.54 -4.25,12.34 -13.71,12.34l-13.03 0zm0 -41.42l0 -18.1 10.42 0c6.99,0 10.7,3.15 10.7,8.91 0,5.35 -3.29,9.19 -10.28,9.19l-10.83 0z"/>
   <path id="_4" class="fil0" d="M396.33 100.11c16.46,0 34.56,-9.74 34.56,-30.03 0,-13.44 -7.82,-21.39 -25.37,-28.39l-6.58 -2.61c-10.15,-4.11 -12.62,-7.41 -12.62,-11.66 0,-5.49 4.53,-8.23 10.42,-8.23 6.03,0 10.97,3.15 15.22,10.56l16.05 -9.05c-4.66,-10.29 -14.95,-20.71 -32.09,-20.71 -16.87,0 -30.99,10.28 -30.99,27.15 0,15.77 11.93,22.9 24.96,28.11l6.03 2.33c9.32,3.7 12.48,6.45 12.48,12.21 0,7.54 -5.9,10.7 -12.34,10.7 -9.19,0 -14.4,-6.31 -17.14,-12.89l-17.55 8.09c3.7,14.26 17.83,24.41 34.97,24.41z"/>
   <polygon id="_5" class="fil0" points="440.35,98.74 462.01,98.74 462.01,42.92 462.7,42.92 485.6,98.74 501.51,98.74 524.41,42.92 525.1,42.92 525.1,98.74 546.77,98.74 546.77,1.37 522.9,1.37 493.56,71.17 464.21,1.37 440.35,1.37 "/>
   <path id="_6" class="fil0" d="M559.66 98.74l21.67 0 0 -30.17 13.99 0c21.12,0 35.38,-13.16 35.38,-33.46 0,-20.71 -14.26,-33.73 -35.38,-33.73l-35.66 0 0 97.37zm21.67 -50.05l0 -27.43 11.93 0c8.78,0 15.5,3.43 15.5,13.85 0,10.42 -6.72,13.58 -15.5,13.58l-11.93 0z"/>
   <path class="fil1" d="M18.36 126.69c6.29,0 11.29,1.77 14.98,5.33 3.7,3.55 5.55,8.25 5.55,14.09 0,5.92 -1.85,10.66 -5.55,14.22 -3.7,3.57 -8.7,5.35 -14.98,5.35l-17.02 0 0 -38.98 17.02 0zm-0.29 31.3c3.4,0 6.13,-1.06 8.19,-3.17 2.06,-2.12 3.09,-5 3.09,-8.65 0,-3.64 -1.03,-6.52 -3.09,-8.64 -2.06,-2.12 -4.79,-3.18 -8.19,-3.18l-7.38 0 0 23.63 7.38 0z"/>
   <polygon id="_1_0" class="fil1" points="45.6,126.69 54.94,126.69 54.94,165.67 45.6,165.67 "/>
   <path id="_2_1" class="fil1" d="M77.61 166.4c-3.43,0 -6.63,-0.63 -9.58,-1.89 -2.95,-1.26 -5.3,-2.97 -7.06,-5.14l0 -0.73 4.63 -5.33 0.65 0c1.29,1.44 2.94,2.66 4.96,3.66 2.02,0.99 3.97,1.49 5.85,1.49 1.91,0 3.43,-0.34 4.55,-1.04 1.13,-0.69 1.69,-1.62 1.69,-2.79 0,-0.53 -0.11,-1.02 -0.33,-1.46 -0.21,-0.43 -0.47,-0.78 -0.77,-1.04 -0.3,-0.25 -0.79,-0.52 -1.45,-0.8 -0.67,-0.28 -1.22,-0.49 -1.66,-0.63 -0.44,-0.14 -1.14,-0.35 -2.12,-0.63 -0.98,-0.28 -1.73,-0.5 -2.26,-0.66 -1.56,-0.49 -2.95,-1.02 -4.17,-1.6 -1.22,-0.57 -2.46,-1.32 -3.72,-2.24 -1.26,-0.92 -2.24,-2.06 -2.93,-3.44 -0.7,-1.38 -1.04,-2.94 -1.04,-4.67 0,-3.4 1.36,-6.17 4.07,-8.31 2.72,-2.14 6.25,-3.21 10.61,-3.21 3.08,0 5.92,0.55 8.52,1.63 2.6,1.08 4.64,2.5 6.12,4.26l0 0.65 -4.6 5.3 -0.67 0c-2.75,-2.83 -5.83,-4.26 -9.23,-4.28 -1.56,0 -2.83,0.31 -3.82,0.94 -0.99,0.62 -1.48,1.47 -1.48,2.55 0,0.6 0.15,1.15 0.45,1.62 0.31,0.48 0.8,0.91 1.48,1.29 0.69,0.38 1.3,0.68 1.83,0.9 0.54,0.21 1.33,0.5 2.36,0.88 4.4,1.4 7.4,2.56 9,3.48 3.59,2.17 5.4,5.3 5.42,9.41 0,3.67 -1.46,6.56 -4.38,8.67 -2.92,2.11 -6.56,3.16 -10.92,3.16z"/>
   <path id="_3_2" class="fil1" d="M116.62 126.69c6.29,0 11.29,1.77 14.98,5.33 3.7,3.55 5.55,8.25 5.55,14.09 0,5.92 -1.85,10.66 -5.55,14.22 -3.7,3.57 -8.7,5.35 -14.98,5.35l-17.02 0 0 -38.98 17.02 0zm-0.29 31.3c3.4,0 6.13,-1.06 8.19,-3.17 2.06,-2.12 3.09,-5 3.09,-8.65 0,-3.64 -1.03,-6.52 -3.09,-8.64 -2.06,-2.12 -4.79,-3.18 -8.19,-3.18l-7.38 0 0 23.63 7.38 0z"/>
   <polygon id="_4_3" class="fil1" points="143.86,126.69 153.21,126.69 153.21,165.67 143.86,165.67 "/>
   <polygon id="_5_4" class="fil1" points="181.26,144.31 196.79,164.94 196.38,165.67 186.42,165.67 174.41,149.82 171.54,153.13 171.54,165.67 162.2,165.67 162.2,126.69 171.54,126.69 171.54,142.58 185.45,126.69 195.65,126.69 196.09,127.39 "/>
   <path id="_6_5" class="fil1" d="M218.13 126.69c4.85,0 8.58,1.12 11.2,3.38 2.61,2.26 3.92,5.39 3.92,9.39 0,4 -1.3,7.13 -3.89,9.39 -2.6,2.25 -6.34,3.38 -11.23,3.38l-7.61 0 0 13.45 -9.35 0 0 -38.98 16.96 0zm0.12 18.27c1.64,0 2.96,-0.46 3.94,-1.38 0.99,-0.92 1.48,-2.22 1.48,-3.9 0,-1.68 -0.49,-2.98 -1.48,-3.92 -0.98,-0.94 -2.3,-1.41 -3.94,-1.41l-7.73 0 0 10.61 7.73 0z"/>
   <path id="_7" class="fil1" d="M258.09 166.4c-6.12,0 -11.22,-1.92 -15.3,-5.77 -4.08,-3.85 -6.12,-8.67 -6.12,-14.47 0,-5.8 2.04,-10.62 6.11,-14.46 4.07,-3.84 9.17,-5.76 15.31,-5.76 6.07,0 11.15,1.93 15.23,5.79 4.08,3.86 6.12,8.67 6.12,14.43 0,5.76 -2.04,10.57 -6.12,14.44 -4.08,3.87 -9.16,5.8 -15.23,5.8zm-8.41 -11.8c2.28,2.22 5.08,3.34 8.41,3.34 3.32,0 6.11,-1.12 8.39,-3.34 2.27,-2.23 3.41,-5.04 3.41,-8.44 0,-3.4 -1.14,-6.21 -3.41,-8.42 -2.28,-2.22 -5.07,-3.33 -8.39,-3.33 -3.33,0 -6.13,1.11 -8.41,3.33 -2.29,2.21 -3.43,5.02 -3.43,8.42 0,3.4 1.14,6.21 3.43,8.44z"/>
   <path id="_8" class="fil1" d="M310.19 149.82l8.23 15.12 -0.44 0.73 -9.28 0 -7.88 -14.65 -5.45 0 0 14.65 -9.35 0 0 -38.98 16.79 0c4.84,0 8.56,1.09 11.16,3.29 2.6,2.2 3.9,5.24 3.9,9.13 0,2.56 -0.68,4.75 -2.04,6.59 -1.36,1.84 -3.24,3.21 -5.64,4.13zm-14.82 -15.47l0 10.26 7.5 0c1.6,0 2.91,-0.46 3.92,-1.38 1.02,-0.92 1.53,-2.14 1.53,-3.66 0,-1.57 -0.51,-2.83 -1.53,-3.78 -1.01,-0.96 -2.32,-1.44 -3.92,-1.44l-7.5 0z"/>
   <path id="_9" class="fil1" d="M344.37 126.69l17.93 38.25 -0.41 0.73 -9.47 0 -2.84 -6.83 -16.49 0 -2.87 6.83 -9.14 0 -0.41 -0.73 18 -38.25 5.69 0zm-8.53 25.65l11.11 0 -5.45 -13.24 -5.66 13.24z"/>
   <path id="_10" class="fil2" d="M396.91 166.4c-5.92,0 -10.91,-1.93 -14.97,-5.8 -4.06,-3.87 -6.09,-8.68 -6.09,-14.44 0,-5.76 2.02,-10.57 6.08,-14.43 4.05,-3.86 9.08,-5.79 15.1,-5.79 3.28,0 6.34,0.68 9.17,2.04 2.83,1.36 5.21,3.22 7.15,5.58l0 0.67 -5.77 4.81 -0.65 0c-2.56,-3.09 -5.86,-4.63 -9.9,-4.63 -3.28,0 -6.05,1.11 -8.29,3.33 -2.25,2.21 -3.37,5.02 -3.37,8.42 0,3.4 1.12,6.21 3.37,8.44 2.24,2.22 5.01,3.34 8.29,3.34 4.04,0 7.34,-1.55 9.9,-4.63l0.65 0 5.77 4.8 0 0.65c-1.92,2.36 -4.28,4.22 -7.11,5.59 -2.82,1.37 -5.93,2.05 -9.33,2.05z"/>
   <polygon id="_11" class="fil2" points="419.09,126.69 428.44,126.69 428.44,165.67 419.09,165.67 "/>
   <path id="_12" class="fil2" d="M456.79 126.69l17.93 38.25 -0.41 0.73 -9.47 0 -2.84 -6.83 -16.49 0 -2.87 6.83 -9.14 0 -0.41 -0.73 18 -38.25 5.69 0zm-8.53 25.65l11.11 0 -5.45 -13.24 -5.66 13.24z"/>
   <polygon id="_13" class="fil2" points="504.94,126.69 514.3,126.69 514.3,165.85 508.47,165.85 488.68,142.64 488.68,165.67 479.39,165.67 479.39,126.69 485.19,126.69 504.94,149.88 "/>
   <path id="_14" class="fil2" d="M536.6 126.69l9.38 0 0 23.19c0,10.99 -4.85,16.49 -14.53,16.52 -2.52,0 -4.96,-0.56 -7.33,-1.68 -2.36,-1.13 -4.2,-2.59 -5.51,-4.38l0 -0.68 5.22 -5.21 0.73 0c1.64,2.36 3.74,3.54 6.3,3.54 1.76,0 3.16,-0.57 4.19,-1.71 1.04,-1.14 1.55,-2.75 1.55,-4.82l0 -24.77z"/>
   <path id="_15" class="fil2" d="M553.85 126.69l9.37 0 0 22.13c0,2.76 0.81,4.97 2.42,6.65 1.61,1.68 3.72,2.52 6.33,2.52 2.6,0 4.72,-0.84 6.34,-2.52 1.62,-1.68 2.43,-3.89 2.43,-6.65l0 -22.13 9.17 0 0 21.64c0,5.45 -1.65,9.82 -4.95,13.12 -3.3,3.3 -7.63,4.95 -12.98,4.95 -5.45,0 -9.83,-1.65 -13.15,-4.95 -3.32,-3.3 -4.98,-7.67 -4.98,-13.12l0 -21.64z"/>
   <path id="_16" class="fil2" d="M622.48 149.82l8.23 15.12 -0.44 0.73 -9.28 0 -7.88 -14.65 -5.45 0 0 14.65 -9.35 0 0 -38.98 16.79 0c4.84,0 8.56,1.09 11.16,3.29 2.6,2.2 3.9,5.24 3.9,9.13 0,2.56 -0.68,4.75 -2.04,6.59 -1.36,1.84 -3.24,3.21 -5.64,4.13zm-14.82 -15.47l0 10.26 7.5 0c1.6,0 2.91,-0.46 3.92,-1.38 1.02,-0.92 1.53,-2.14 1.53,-3.66 0,-1.57 -0.51,-2.83 -1.53,-3.78 -1.01,-0.96 -2.32,-1.44 -3.92,-1.44l-7.5 0z"/>
  </g>
 </g>
</svg>
