<?xml version="1.0" standalone="no"?>
<!DOCTYPE svg PUBLIC "-//W3C//DTD SVG 20010904//EN"
 "http://www.w3.org/TR/2001/REC-SVG-20010904/DTD/svg10.dtd">
<svg version="1.0" xmlns="http://www.w3.org/2000/svg"
 width="864.000000pt" height="864.000000pt" viewBox="0 0 864.000000 864.000000"
 preserveAspectRatio="xMidYMid meet">
<metadata>
Created by potrace 1.14, written by Peter Selinger 2001-2017
</metadata>
<g transform="translate(0.000000,864.000000) scale(0.100000,-0.100000)"
fill="#000000" stroke="none">
<path d="M4118 8635 c-2 -2 -34 -6 -73 -9 -38 -4 -81 -8 -95 -10 -14 -3 -47
-7 -75 -11 -27 -3 -67 -10 -87 -16 -20 -5 -40 -9 -45 -8 -4 1 -10 0 -13 -1 -3
-1 -12 -3 -20 -5 -8 -2 -26 -6 -40 -9 -54 -11 -78 -18 -140 -36 -25 -8 -47
-14 -50 -15 -86 -24 -235 -77 -305 -109 -16 -8 -66 -31 -110 -51 -132 -61
-374 -203 -456 -269 -15 -12 -39 -30 -55 -41 -15 -11 -46 -35 -68 -54 -23 -18
-61 -50 -85 -70 -76 -62 -283 -273 -336 -342 -11 -15 -48 -63 -82 -107 -35
-44 -63 -85 -63 -91 0 -5 -4 -11 -8 -13 -29 -11 -204 -322 -291 -518 -22 -48
-79 -202 -88 -235 -3 -11 -16 -55 -29 -97 -13 -43 -25 -88 -28 -100 -2 -13 -9
-43 -15 -68 -5 -25 -12 -58 -15 -75 -3 -16 -8 -41 -11 -55 -3 -14 -8 -42 -10
-64 -2 -21 -7 -46 -9 -55 -3 -9 -9 -52 -13 -96 -10 -100 -10 -3278 0 -3360 4
-33 9 -76 12 -95 3 -19 8 -51 10 -70 3 -19 7 -46 10 -60 3 -14 8 -38 11 -55
16 -94 90 -365 114 -420 5 -11 21 -51 36 -90 37 -97 143 -316 194 -400 43 -71
173 -268 191 -289 31 -37 53 -64 72 -89 42 -53 152 -171 241 -256 144 -137
146 -140 146 -135 0 3 10 -5 23 -16 35 -34 208 -162 238 -177 15 -7 32 -20 39
-28 7 -8 17 -15 23 -15 6 0 18 -6 26 -14 46 -40 420 -226 454 -226 7 0 17 -4
22 -9 9 -7 132 -50 230 -81 36 -11 152 -40 180 -46 11 -2 43 -8 70 -14 81 -17
98 -20 145 -26 25 -3 54 -8 64 -10 97 -18 468 -25 636 -11 99 9 325 43 339 52
4 2 26 6 51 10 25 4 49 10 55 13 5 4 18 8 29 9 41 7 187 53 291 93 61 23 125
47 143 54 18 7 38 18 44 24 7 7 18 12 25 12 24 0 239 118 341 187 35 24 65 43
68 43 5 0 113 79 124 90 3 3 23 19 45 35 234 174 517 496 692 785 111 185 218
418 274 598 12 37 24 74 27 82 3 8 6 20 7 26 2 6 10 36 18 65 16 57 35 144 43
194 3 17 8 41 10 55 3 14 7 39 10 55 2 17 6 45 9 63 3 19 9 68 13 110 9 101 9
3205 -1 3302 -8 80 -11 105 -29 215 -6 39 -12 77 -14 85 -5 33 -35 159 -58
245 -21 76 -82 250 -101 289 -8 16 -15 34 -15 39 0 10 -130 278 -140 287 -5 5
-35 59 -54 97 -6 13 -14 23 -18 23 -5 0 -8 5 -8 10 0 16 -112 175 -204 290
-99 123 -230 260 -346 360 -35 30 -68 60 -74 66 -15 14 -145 109 -226 166
-197 136 -476 272 -729 354 -119 39 -192 59 -316 84 -77 16 -96 19 -140 25
-22 3 -56 8 -76 11 -20 3 -58 8 -85 10 -55 6 -491 14 -496 9z m232 -2017 c0
-8 -13 -13 -30 -13 -30 0 -36 5 -23 18 11 12 53 7 53 -5z m464 -65 c15 -8 -34
-11 -207 -11 -205 1 -238 3 -222 20 11 10 410 3 429 -9z m-560 -518 c-149
-110 -204 -149 -226 -163 -16 -9 -28 -20 -28 -24 0 -5 -5 -8 -11 -8 -6 0 -24
-10 -39 -22 -15 -13 -38 -31 -51 -40 -320 -226 -507 -359 -517 -368 -7 -6 -18
-10 -24 -8 -12 4 45 50 162 128 36 25 67 47 70 50 7 8 209 151 243 173 16 10
38 26 50 37 11 11 24 20 27 20 6 0 17 8 66 48 5 5 20 14 31 21 12 6 27 17 35
24 7 7 38 29 68 50 30 20 78 54 105 75 28 21 52 34 54 29 2 -5 -5 -15 -15 -22z
m176 -4 c19 -14 37 -29 38 -33 2 -5 10 -8 18 -8 8 0 14 -4 14 -10 0 -5 6 -10
14 -10 8 0 16 -4 18 -8 2 -4 32 -28 68 -52 36 -25 67 -47 70 -50 3 -3 52 -39
110 -80 58 -41 107 -78 108 -82 2 -4 7 -8 12 -8 12 0 384 -269 388 -280 2 -6
-1 -10 -7 -10 -6 0 -11 5 -11 10 0 6 -5 10 -11 10 -6 0 -25 11 -43 25 -39 32
-38 31 -116 85 -36 24 -66 48 -68 52 -2 4 -10 8 -17 8 -7 0 -15 3 -17 8 -4 9
-85 72 -92 72 -3 0 -34 21 -68 46 -35 25 -72 52 -83 60 -11 8 -52 38 -92 66
-40 29 -102 73 -138 98 -93 63 -139 99 -149 117 -10 18 0 14 54 -26z m-902
-1146 c1 -6 -125 -12 -353 -15 -195 -3 -355 -2 -355 2 0 4 7 11 15 15 21 12
689 10 693 -2z m2294 -3 c9 -9 -62 -12 -344 -12 -312 0 -381 4 -363 21 2 2
159 4 349 4 260 0 348 -3 358 -13z"/>
</g>
</svg>
